<svg data-v-fde0c5aa="" xmlns="http://www.w3.org/2000/svg" viewBox="0 0 300 300" class="iconLeftSlogan"><!----><defs data-v-fde0c5aa=""><!----></defs><rect data-v-fde0c5aa="" fill="transparent" x="0" y="0" width="300px" height="300px" class="logo-background-square"></rect><defs data-v-fde0c5aa=""><!----></defs><g data-v-fde0c5aa="" id="55822a4e-6616-47db-98d4-4a97ee72fe79" fill="#000000" transform="matrix(2.0486277566701303,0,0,2.0486277566701303,96.17123266931283,117.81336252842222)"><path d="M2.65 13.02L2.65 13.02Q3.72 10.77 5.45 7.42L5.45 7.42Q6.13 6.08 6.78 5.54L6.78 5.54Q6.99 5.36 8.81 4.34L8.81 4.34Q9.07 4.19 9.34 4.02L9.34 4.02Q9.66 3.85 9.93 3.85L9.93 3.85L9.93 4.06Q9.30 4.54 9.09 5.18L9.09 5.18Q8.93 5.66 8.93 6.61L8.93 6.61Q8.93 9.37 10.35 12.46L10.35 12.46Q10.42 12.61 11.00 13.41L11.00 13.41Q11.48 14.06 11.48 14.34L11.48 14.34Q11.48 14.98 10.81 15.30L10.81 15.30Q10.29 15.55 9.56 15.55L9.56 15.55Q8.68 15.55 8.06 14.15L8.06 14.15Q7.92 13.82 7.41 12.04L7.41 12.04Q7.25 12.12 5.96 12.56L5.96 12.56Q4.76 12.96 4.75 13.02L4.75 13.02L4.05 15.12Q3.96 15.26 3.77 15.40L3.77 15.40L0.55 17.64Q0.31 17.81 0.10 17.81L0.10 17.81Q0.10 17.50 0.52 17.00L0.52 17.00Q1.04 16.37 1.11 16.24L1.11 16.24Q1.86 14.80 2.51 13.44L2.51 13.44Q2.60 13.23 2.65 13.02ZM6.43 8.54L6.43 8.54Q6.33 8.58 5.88 9.72Q5.43 10.85 5.43 11.06L5.43 11.06L6.99 11.06Q7.01 11.06 7.07 10.94Q7.13 10.82 7.13 10.78L7.13 10.78Q7.13 10.58 6.82 9.58Q6.51 8.58 6.43 8.54ZM12.03 13.79L12.03 13.79Q12.03 13.33 12.21 12.87L12.21 12.87Q12.33 12.39 12.47 11.91L12.47 11.91Q12.66 11.35 13.01 11.35L13.01 11.35L13.33 11.35Q13.50 12.54 14.67 13.45L14.67 13.45Q15.81 14.35 17.02 14.35L17.02 14.35Q17.63 14.35 17.63 13.86L17.63 13.86Q17.63 13.47 16.98 12.94L16.98 12.94L16.94 12.88Q16.90 12.85 16.87 12.84L16.87 12.84L16.88 12.85Q16.24 12.59 14.03 11.35L14.03 11.35Q12.67 10.60 12.67 9.41L12.67 9.41Q12.67 8.01 14.43 6.76L14.43 6.76Q16.06 5.61 17.54 5.61L17.54 5.61Q18.48 5.61 19.04 6.17Q19.60 6.73 19.60 7.67L19.60 7.67Q19.60 8.36 18.68 9.25Q17.77 10.15 17.07 10.15L17.07 10.15Q17.07 9.94 17.16 9.51Q17.25 9.09 17.25 8.88L17.25 8.88L17.25 8.76Q17.23 8.68 17.23 8.61L17.23 8.61L17.23 8.34Q16.53 7.50 15.78 7.50L15.78 7.50Q14.73 7.50 14.73 8.41L14.73 8.41Q14.73 8.99 15.47 9.52L15.47 9.52Q15.99 9.88 17.23 10.47L17.23 10.47Q18.42 11.05 18.98 11.47L18.98 11.47Q19.85 12.12 19.85 12.85L19.85 12.85L19.85 12.94Q19.38 14.24 18.51 15.09L18.51 15.09Q17.49 16.10 16.24 16.10L16.24 16.10Q15.09 16.10 13.69 15.51L13.69 15.51Q12.03 14.81 12.03 13.79ZM23.65 10.85L23.65 10.85Q23.65 9.34 23.51 7.45L23.51 7.45L23.51 7.46Q23.44 7.22 23.10 7.22L23.10 7.22L23.04 7.22Q22.61 7.22 21.74 7.38Q20.87 7.53 20.44 7.53L20.44 7.53Q20.44 6.31 21.52 5.96L21.52 5.96Q22.33 5.82 23.55 5.59L23.55 5.59Q23.91 5.52 24.89 4.98L24.89 4.98Q26.17 4.30 27.13 4.30L27.13 4.30Q27.13 4.55 26.89 4.84Q26.66 5.14 26.66 5.24L26.66 5.24Q26.66 5.56 26.89 5.59L26.89 5.59L28.83 5.85Q29.09 5.89 29.36 6.36L29.36 6.36Q29.58 6.79 29.58 7.10L29.58 7.10Q29.58 7.39 29.44 7.48L29.44 7.48Q29.36 7.53 29.02 7.53L29.02 7.53L28.97 7.53Q28.52 7.53 27.62 7.38Q26.73 7.22 26.28 7.22L26.28 7.22L26.21 7.22Q25.97 7.22 25.97 7.35L25.97 7.35Q25.97 7.39 25.98 7.43L25.98 7.43Q25.87 8.26 25.84 9.38L25.84 9.38Q25.83 9.95 25.83 11.80L25.83 11.80Q25.83 13.87 25.84 14.24L25.84 14.24Q25.72 14.88 24.68 15.39L24.68 15.39Q23.77 15.83 23.07 15.83L23.07 15.83Q23.07 15.50 23.24 14.97L23.24 14.97L23.24 14.98Q23.65 13.76 23.65 10.85ZM32.21 15.39L32.21 15.39Q31.96 15.39 31.48 15.48Q31.00 15.57 30.74 15.57L30.74 15.57Q30.74 15.30 30.93 14.91L30.93 14.91Q31.19 14.35 31.21 14.28L31.21 14.28Q31.49 13.33 31.50 11.23L31.50 11.23L31.51 9.38Q31.53 8.36 31.21 7.56L31.21 7.56Q31.14 7.38 30.88 7.38L30.88 7.38Q30.80 7.38 30.62 7.41Q30.44 7.43 30.35 7.43L30.35 7.43Q30.07 7.43 30.07 7.14L30.07 7.14Q30.07 6.57 31.89 5.52L31.89 5.52Q33.61 4.52 34.19 4.52L34.19 4.52Q34.19 4.84 34.10 5.04L34.10 5.04L33.87 5.60L33.87 5.74Q33.91 5.84 34.01 5.88L34.01 5.88L34.71 5.88Q34.73 5.88 35.18 5.89L35.18 5.89Q35.29 5.89 35.41 5.89L35.41 5.89Q36.08 5.89 37.44 5.80Q38.79 5.71 39.47 5.71L39.47 5.71L39.47 5.88Q39.47 5.94 39.18 6.22Q38.89 6.50 38.77 6.58L38.77 6.58Q37.88 7.24 37.09 7.70L37.09 7.70L36.67 7.70Q36.53 7.70 36.39 7.71L36.39 7.71L36.25 7.71Q35.85 7.71 35.06 7.65Q34.26 7.59 33.87 7.59L33.87 7.59L33.87 9.65Q34.19 9.65 34.80 9.52Q35.41 9.39 35.69 9.38L35.69 9.38Q36.64 9.34 38.57 9.34L38.57 9.34Q38.57 9.79 37.48 10.30L37.48 10.30Q36.53 10.75 35.97 10.78L35.97 10.78Q34.68 10.84 33.87 10.92L33.87 10.92Q33.89 11.38 33.89 11.87L33.89 11.87Q33.89 12.35 33.87 12.88L33.87 12.88L33.73 13.30Q33.75 13.22 33.75 13.58L33.75 13.58Q34.68 13.58 36.51 13.43Q38.35 13.27 39.27 13.27L39.27 13.27Q39.27 13.78 37.58 14.81L37.58 14.81Q35.94 15.82 35.34 15.82L35.34 15.82Q34.80 15.82 33.77 15.60Q32.75 15.39 32.21 15.39ZM40.39 17.09L40.39 16.90Q41.96 15.37 42.38 12.80L42.38 12.80Q42.59 11.51 42.59 8.11L42.59 8.11Q42.06 8.11 41.54 8.65L41.54 8.65Q41.41 8.79 40.75 9.67L40.75 9.67Q40.35 10.22 40.07 10.22L40.07 10.22Q40.07 8.61 40.81 7.64L40.81 7.64Q41.19 7.15 43.13 6.05Q45.07 4.96 45.61 4.96L45.61 4.96Q45.61 5.14 45.47 5.46Q45.32 5.78 45.32 5.96L45.32 5.96Q45.61 5.96 46.18 5.82Q46.75 5.68 47.04 5.68L47.04 5.68Q47.92 5.68 48.50 6.23Q49.08 6.78 49.08 7.66L49.08 7.66Q49.08 8.61 48.50 9.30L48.50 9.30Q48.20 9.63 47.11 10.46L47.11 10.46Q47.00 10.54 46.97 10.60L46.97 10.60L47.39 11.44L50.61 15.78L50.61 16.23Q48.13 16.23 45.85 13.26L45.85 13.26Q45.74 13.09 45.43 12.65Q45.12 12.21 44.87 12.00L44.87 12.00L44.66 12.14L44.66 14.38Q44.66 14.78 42.67 15.96L42.67 15.96Q40.77 17.09 40.39 17.09L40.39 17.09ZM45.28 6.94L45.28 6.94Q44.87 6.94 44.87 7.66L44.87 7.66L44.87 10.77Q45.65 10.77 46.14 9.94L46.14 9.94Q46.56 9.24 46.56 8.40L46.56 8.40Q46.56 7.84 46.19 7.39Q45.82 6.94 45.28 6.94ZM54.22 10.85L54.22 10.85Q54.22 9.34 54.08 7.45L54.08 7.45L54.08 7.46Q54.01 7.22 53.68 7.22L53.68 7.22L53.62 7.22Q53.19 7.22 52.32 7.38Q51.45 7.53 51.02 7.53L51.02 7.53Q51.02 6.31 52.09 5.96L52.09 5.96Q52.91 5.82 54.12 5.59L54.12 5.59Q54.49 5.52 55.47 4.98L55.47 4.98Q56.74 4.30 57.71 4.30L57.71 4.30Q57.71 4.55 57.47 4.84Q57.23 5.14 57.23 5.24L57.23 5.24Q57.23 5.56 57.47 5.59L57.47 5.59L59.40 5.85Q59.67 5.89 59.93 6.36L59.93 6.36Q60.16 6.79 60.16 7.10L60.16 7.10Q60.16 7.39 60.02 7.48L60.02 7.48Q59.93 7.53 59.60 7.53L59.60 7.53L59.54 7.53Q59.09 7.53 58.20 7.38Q57.30 7.22 56.85 7.22L56.85 7.22L56.78 7.22Q56.55 7.22 56.55 7.35L56.55 7.35Q56.55 7.39 56.56 7.43L56.56 7.43Q56.45 8.26 56.42 9.38L56.42 9.38Q56.41 9.95 56.41 11.80L56.41 11.80Q56.41 13.87 56.42 14.24L56.42 14.24Q56.29 14.88 55.26 15.39L55.26 15.39Q54.35 15.83 53.65 15.83L53.65 15.83Q53.65 15.50 53.82 14.97L53.82 14.97L53.82 14.98Q54.22 13.76 54.22 10.85ZM62.79 15.39L62.79 15.39Q62.54 15.39 62.06 15.48Q61.57 15.57 61.32 15.57L61.32 15.57Q61.32 15.30 61.50 14.91L61.50 14.91Q61.77 14.35 61.78 14.28L61.78 14.28Q62.06 13.33 62.08 11.23L62.08 11.23L62.09 9.38Q62.10 8.36 61.78 7.56L61.78 7.56Q61.71 7.38 61.46 7.38L61.46 7.38Q61.38 7.38 61.19 7.41Q61.01 7.43 60.93 7.43L60.93 7.43Q60.65 7.43 60.65 7.14L60.65 7.14Q60.65 6.57 62.47 5.52L62.47 5.52Q64.19 4.52 64.76 4.52L64.76 4.52Q64.76 4.84 64.68 5.04L64.68 5.04L64.44 5.60L64.44 5.74Q64.48 5.84 64.58 5.88L64.58 5.88L65.28 5.88Q65.31 5.88 65.76 5.89L65.76 5.89Q65.87 5.89 65.98 5.89L65.98 5.89Q66.65 5.89 68.01 5.80Q69.37 5.71 70.04 5.71L70.04 5.71L70.04 5.88Q70.04 5.94 69.76 6.22Q69.47 6.50 69.34 6.58L69.34 6.58Q68.46 7.24 67.66 7.70L67.66 7.70L67.24 7.70Q67.10 7.70 66.96 7.71L66.96 7.71L66.82 7.71Q66.43 7.71 65.63 7.65Q64.83 7.59 64.44 7.59L64.44 7.59L64.44 9.65Q64.76 9.65 65.37 9.52Q65.98 9.39 66.26 9.38L66.26 9.38Q67.21 9.34 69.15 9.34L69.15 9.34Q69.15 9.79 68.05 10.30L68.05 10.30Q67.10 10.75 66.54 10.78L66.54 10.78Q65.25 10.84 64.44 10.92L64.44 10.92Q64.47 11.38 64.47 11.87L64.47 11.87Q64.47 12.35 64.44 12.88L64.44 12.88L64.30 13.30Q64.33 13.22 64.33 13.58L64.33 13.58Q65.25 13.58 67.09 13.43Q68.92 13.27 69.85 13.27L69.85 13.27Q69.85 13.78 68.15 14.81L68.15 14.81Q66.51 15.82 65.91 15.82L65.91 15.82Q65.38 15.82 64.35 15.60Q63.32 15.39 62.79 15.39ZM71.41 11.23L71.41 10.15Q71.41 9.56 71.26 8.39Q71.11 7.22 71.11 6.64L71.11 6.64Q71.11 5.99 72.28 5.39L72.28 5.39Q73.33 4.86 74.07 4.86L74.07 4.86Q74.07 5.28 73.92 6.10Q73.77 6.93 73.77 7.35L73.77 7.35Q73.77 9.07 73.92 9.67L73.92 9.67Q75.28 8.46 76.58 7.15L76.58 7.15Q77.55 6.19 77.98 5.98L77.98 5.98Q78.57 5.70 79.97 5.70L79.97 5.70Q79.97 5.98 79.28 6.44L79.28 6.44Q79.06 6.58 78.40 7.01L78.40 7.01Q77.04 8.29 75.88 9.53L75.88 9.53L75.88 9.60Q75.88 10.16 76.58 11.38L76.58 11.38Q77.14 12.32 77.70 13.03L77.70 13.03L79.38 15.13Q79.53 15.33 79.53 15.55L79.53 15.55Q79.53 15.78 79.38 15.83L79.38 15.83L79.31 15.83Q79.23 15.85 79.14 15.85L79.14 15.85L78.89 15.85Q76.64 15.85 74.76 13.03L74.76 13.03L73.92 11.77Q73.88 11.68 73.78 11.63L73.78 11.63L73.78 14.99Q73.78 15.48 72.55 16.18L72.55 16.18Q71.37 16.84 70.81 16.84L70.81 16.84Q70.81 16.37 71.01 15.57L71.01 15.57Q71.23 14.67 71.26 14.29L71.26 14.29Q71.40 12.61 71.40 12.05L71.40 12.05Q71.40 12.05 71.41 11.77L71.41 11.77Q71.41 11.51 71.41 11.23L71.41 11.23Z"></path></g><defs data-v-fde0c5aa=""><linearGradient data-v-fde0c5aa="" gradientTransform="rotate(25)" id="41f85b3a-883c-4f3b-b1e2-55100c58d631" x1="0%" y1="0%" x2="100%" y2="0%"><stop data-v-fde0c5aa="" offset="0%" stop-color="#4E1A70" stop-opacity="1"></stop><stop data-v-fde0c5aa="" offset="100%" stop-color="#2B4CF2" stop-opacity="1"></stop></linearGradient></defs><g data-v-fde0c5aa="" id="0ea729d5-a5c6-4636-8099-79187401379f" stroke="none" fill="url(#41f85b3a-883c-4f3b-b1e2-55100c58d631)" transform="matrix(1.6467765830202874,0,0,1.6467765830202874,35.33962239569167,123.6515746716754)"><path d="M2.83 18.247l26.34-9.124L2.83 0zM29.17 32V13.753L2.83 22.877z"></path></g><defs data-v-fde0c5aa=""><!----></defs><g data-v-fde0c5aa="" id="b8dd1b58-177b-480f-9f4e-3fffc140b967" fill="#000000" transform="matrix(0.3113561776350893,0,0,0.3113561776350893,95.93708324795969,162.80802472477535)"><path d="M10.54 5.74L10.54 5.74Q10.58 5.98 10.61 6.07Q10.63 6.16 10.63 6.31L10.63 6.31Q10.63 6.78 10.42 7.18Q10.22 7.57 9.87 7.74L9.87 7.74Q9.59 7.36 9.18 7.09Q8.78 6.82 8.29 6.64Q7.81 6.47 7.29 6.38Q6.78 6.30 6.29 6.30L6.29 6.30Q5.80 6.30 5.37 6.38Q4.94 6.45 4.61 6.59Q4.28 6.72 4.09 6.92Q3.91 7.11 3.91 7.36L3.91 7.36Q3.95 7.67 4.28 7.99Q4.62 8.30 5.11 8.60Q5.60 8.90 6.20 9.20Q6.79 9.49 7.36 9.76L7.36 9.76Q8.08 10.09 8.60 10.38Q9.11 10.67 9.45 11.01Q9.79 11.35 9.95 11.79Q10.12 12.22 10.12 12.84L10.12 12.84Q10.12 13.55 9.88 14.18Q9.65 14.80 9.19 15.26Q8.74 15.72 8.09 15.98Q7.45 16.24 6.65 16.24L6.65 16.24Q5.87 16.24 4.96 16.00Q4.05 15.76 3.25 15.35Q2.46 14.94 1.94 14.40Q1.41 13.86 1.41 13.26L1.41 13.26Q1.41 12.98 1.57 12.54Q1.74 12.11 2.16 11.63L2.16 11.63Q2.20 12.05 2.61 12.63Q3.02 13.20 3.85 13.69L3.85 13.69Q4.62 14.14 5.44 14.34Q6.26 14.55 6.97 14.55L6.97 14.55Q7.76 14.55 8.25 14.35Q8.74 14.15 9.02 13.88Q9.30 13.61 9.41 13.33Q9.52 13.05 9.53 12.88L9.53 12.88Q9.52 12.60 9.28 12.34Q9.03 12.08 8.62 11.84Q8.20 11.59 7.66 11.34Q7.11 11.09 6.52 10.84L6.52 10.84Q5.64 10.44 5.00 10.10Q4.37 9.76 3.96 9.40Q3.54 9.04 3.35 8.65Q3.16 8.26 3.16 7.76L3.16 7.76Q3.16 6.97 3.64 6.27Q4.12 5.57 5.01 5.21L5.01 5.21Q5.46 5.01 5.97 4.93Q6.48 4.84 6.97 4.84L6.97 4.84Q7.90 4.84 8.78 5.10Q9.66 5.35 10.54 5.74ZM24.02 16.21L24.02 16.21Q24.00 16.23 23.97 16.23Q23.94 16.23 23.86 16.23L23.86 16.23Q23.66 16.23 23.40 16.16Q23.14 16.10 22.90 16.01Q22.65 15.92 22.48 15.81Q22.30 15.69 22.26 15.61L22.26 15.61Q22.25 15.41 22.25 15.20Q22.25 14.99 22.25 14.80L22.25 14.80Q22.25 13.23 22.48 11.52Q22.71 9.81 23.24 7.83L23.24 7.83Q23.30 7.63 23.36 7.33Q23.42 7.03 23.49 6.68L23.49 6.68Q23.16 6.94 22.69 7.53Q22.23 8.11 21.72 8.90Q21.21 9.69 20.70 10.63Q20.19 11.58 19.77 12.55Q19.35 13.52 19.05 14.48Q18.75 15.43 18.68 16.24L18.68 16.24Q18.00 16.04 17.75 15.85Q17.49 15.65 17.49 15.37L17.49 15.37Q17.49 15.12 17.64 14.66Q17.79 14.20 18.07 13.57Q18.35 12.94 18.76 12.16Q19.17 11.38 19.66 10.49L19.66 10.49Q20.22 9.46 20.75 8.57Q21.29 7.67 21.81 6.94Q22.33 6.22 22.83 5.68Q23.32 5.15 23.81 4.87L23.81 4.87Q24.01 4.87 24.34 4.97Q24.67 5.07 24.98 5.21Q25.30 5.35 25.54 5.49Q25.79 5.64 25.82 5.74L25.82 5.74Q25.62 6.13 25.35 6.92Q25.09 7.70 24.81 8.69Q24.54 9.69 24.30 10.80Q24.05 11.91 23.91 12.94L23.91 12.94Q24.23 12.17 24.66 11.33Q25.09 10.50 25.56 9.68Q26.04 8.86 26.54 8.09Q27.03 7.32 27.51 6.69Q27.99 6.05 28.40 5.57Q28.81 5.10 29.13 4.87L29.13 4.87Q29.33 4.87 29.66 4.97Q29.99 5.07 30.30 5.21Q30.62 5.35 30.86 5.49Q31.11 5.64 31.14 5.74L31.14 5.74Q30.69 6.54 30.35 7.69Q30.02 8.83 29.79 10.09Q29.55 11.35 29.44 12.59Q29.32 13.83 29.32 14.81L29.32 14.81Q29.32 15.13 29.32 15.48Q29.32 15.83 29.34 16.21L29.34 16.21Q29.15 16.21 28.88 16.16Q28.60 16.11 28.34 16.03Q28.08 15.95 27.87 15.84Q27.66 15.74 27.58 15.61L27.58 15.61Q27.57 15.41 27.57 15.20Q27.57 14.99 27.57 14.80L27.57 14.80Q27.57 13.23 27.80 11.52Q28.03 9.81 28.56 7.83L28.56 7.83Q28.62 7.63 28.69 7.29Q28.76 6.96 28.83 6.59L28.83 6.59Q28.43 6.79 27.94 7.34Q27.44 7.90 26.93 8.69Q26.42 9.48 25.92 10.44Q25.42 11.41 25.02 12.41Q24.63 13.41 24.35 14.40Q24.08 15.39 24.02 16.21ZM39.06 16.24L39.06 16.24Q38.39 16.04 38.13 15.85Q37.87 15.65 37.87 15.36L37.87 15.36Q37.87 15.13 38.00 14.73Q38.12 14.32 38.37 13.77Q38.61 13.22 38.95 12.54Q39.30 11.87 39.73 11.10L39.73 11.10Q39.37 11.09 39.08 11.08Q38.79 11.07 38.61 11.07L38.61 11.07Q38.70 10.86 39.09 10.71Q39.48 10.56 40.12 10.44L40.12 10.44Q40.67 9.53 41.29 8.71Q41.92 7.88 42.55 7.19Q43.18 6.50 43.81 5.97Q44.44 5.45 45.01 5.14L45.01 5.14Q45.02 5.04 45.03 4.97Q45.04 4.90 45.04 4.87L45.04 4.87Q45.23 4.87 45.56 4.97Q45.89 5.07 46.21 5.21Q46.52 5.35 46.77 5.49Q47.01 5.64 47.04 5.74L47.04 5.74Q46.58 6.55 46.13 8.17Q45.68 9.79 45.39 12.04L45.39 12.04Q45.32 12.60 45.27 13.31Q45.22 14.03 45.22 14.91L45.22 14.91Q45.22 15.22 45.22 15.54Q45.22 15.86 45.25 16.21L45.25 16.21Q45.22 16.23 45.19 16.23Q45.16 16.23 45.08 16.23L45.08 16.23Q44.88 16.23 44.63 16.16Q44.37 16.10 44.12 16.01Q43.88 15.92 43.70 15.81Q43.53 15.69 43.48 15.61L43.48 15.61Q43.47 15.43 43.47 15.25Q43.47 15.08 43.47 14.88L43.47 14.88Q43.47 14.01 43.53 13.12Q43.60 12.22 43.75 11.27L43.75 11.27Q43.55 11.26 43.23 11.23Q42.91 11.21 42.51 11.20Q42.11 11.19 41.66 11.16Q41.20 11.14 40.77 11.13L40.77 11.13Q40.43 11.76 40.14 12.38Q39.84 13.01 39.63 13.64L39.63 13.64Q39.40 14.31 39.25 14.98Q39.10 15.65 39.06 16.24ZM44.46 7.83L44.46 7.83Q44.52 7.63 44.60 7.29Q44.67 6.94 44.74 6.57L44.74 6.57Q44.39 6.69 43.97 7.03Q43.54 7.36 43.09 7.86Q42.63 8.36 42.16 8.98Q41.69 9.60 41.26 10.30L41.26 10.30Q42.43 10.21 43.93 10.18L43.93 10.18Q44.04 9.59 44.18 9.01Q44.31 8.43 44.46 7.83ZM63.94 7.46L63.94 7.46Q63.94 8.13 63.64 8.73Q63.34 9.32 62.80 9.79Q62.27 10.26 61.56 10.58Q60.84 10.91 60.00 11.02L60.00 11.02Q60.21 11.65 60.52 12.31Q60.82 12.98 61.17 13.59Q61.52 14.21 61.89 14.73Q62.27 15.25 62.64 15.58L62.64 15.58Q62.57 15.72 62.43 15.86Q62.30 16.00 62.13 16.12Q61.95 16.24 61.76 16.32Q61.57 16.39 61.40 16.39L61.40 16.39Q61.10 16.39 60.82 16.10Q60.54 15.81 60.25 15.17Q59.96 14.53 59.65 13.52Q59.33 12.50 58.95 11.07L58.95 11.07Q58.80 11.07 58.65 11.07Q58.49 11.07 58.41 11.05L58.41 11.05Q58.31 10.99 58.20 10.85L58.20 10.85Q57.82 11.66 57.53 12.38Q57.23 13.09 57.00 13.76Q56.77 14.42 56.59 15.04Q56.42 15.67 56.29 16.31L56.29 16.31Q55.82 16.20 55.47 15.90Q55.12 15.61 54.81 15.08L54.81 15.08Q54.87 14.95 54.93 14.83Q54.99 14.71 55.09 14.50Q55.19 14.28 55.34 13.94Q55.48 13.61 55.73 13.05Q55.97 12.49 56.31 11.68Q56.66 10.86 57.15 9.70L57.15 9.70Q57.37 9.18 57.53 8.79Q57.69 8.40 57.82 8.04Q57.95 7.69 58.05 7.33Q58.16 6.97 58.27 6.51L58.27 6.51Q57.62 6.73 57.07 7.01Q56.52 7.28 56.15 7.59L56.15 7.59Q56.03 7.50 55.89 7.34Q55.76 7.17 55.65 6.96Q55.54 6.76 55.45 6.55Q55.37 6.34 55.36 6.17L55.36 6.17Q55.78 5.89 56.38 5.66Q56.99 5.42 57.68 5.24Q58.37 5.07 59.08 4.97Q59.79 4.87 60.41 4.87L60.41 4.87Q62.09 4.87 63.01 5.56Q63.94 6.26 63.94 7.46ZM60.35 6.02L60.52 6.29Q60.42 6.41 60.21 6.79Q60.00 7.17 59.73 7.69Q59.46 8.22 59.16 8.83Q58.86 9.45 58.58 10.05L58.58 10.05Q59.63 10.05 60.51 9.86Q61.39 9.66 62.03 9.30Q62.68 8.95 63.03 8.46Q63.39 7.98 63.39 7.39L63.39 7.39Q63.39 6.69 62.89 6.32Q62.38 5.95 61.33 5.95L61.33 5.95Q61.10 5.95 60.86 5.97Q60.62 5.99 60.35 6.02L60.35 6.02ZM73.29 6.69L73.29 6.69Q72.73 6.69 72.43 6.38Q72.13 6.06 72.13 5.61L72.13 5.61Q72.13 5.50 72.16 5.35Q72.20 5.19 72.25 5.08L72.25 5.08Q72.44 5.17 72.79 5.20Q73.15 5.24 73.63 5.24L73.63 5.24Q74.34 5.24 75.24 5.17Q76.15 5.11 76.97 5.04Q77.80 4.97 78.43 4.91Q79.06 4.84 79.24 4.84L79.24 4.84Q79.76 4.84 79.99 5.23Q80.22 5.61 80.33 6.26L80.33 6.26Q79.97 6.23 79.61 6.21Q79.25 6.19 79.00 6.19L79.00 6.19Q78.55 6.19 78.10 6.22Q77.64 6.24 77.18 6.30L77.18 6.30Q76.99 6.71 76.75 7.26Q76.51 7.81 76.28 8.41Q76.05 9.02 75.84 9.61Q75.63 10.21 75.47 10.68L75.47 10.68Q75.17 11.61 74.94 12.39Q74.70 13.17 74.53 13.85Q74.35 14.53 74.23 15.15Q74.10 15.76 74.00 16.35L74.00 16.35Q73.07 16.21 72.44 15.18L72.44 15.18Q72.55 14.74 72.71 14.23Q72.87 13.72 73.09 13.07Q73.30 12.42 73.60 11.59Q73.89 10.77 74.27 9.72L74.27 9.72Q74.41 9.32 74.56 8.90Q74.72 8.47 74.86 8.05Q75.01 7.63 75.13 7.24Q75.25 6.85 75.33 6.52L75.33 6.52Q74.75 6.59 74.22 6.64Q73.70 6.69 73.29 6.69ZM96.71 16.24L96.71 16.24Q96.04 16.04 95.78 15.85Q95.52 15.65 95.52 15.36L95.52 15.36Q95.52 15.13 95.65 14.73Q95.77 14.32 96.02 13.77Q96.26 13.22 96.61 12.54Q96.95 11.87 97.38 11.10L97.38 11.10Q97.02 11.09 96.73 11.08Q96.45 11.07 96.26 11.07L96.26 11.07Q96.35 10.86 96.74 10.71Q97.13 10.56 97.78 10.44L97.78 10.44Q98.32 9.53 98.94 8.71Q99.57 7.88 100.20 7.19Q100.83 6.50 101.46 5.97Q102.09 5.45 102.66 5.14L102.66 5.14Q102.68 5.04 102.68 4.97Q102.69 4.90 102.69 4.87L102.69 4.87Q102.89 4.87 103.21 4.97Q103.54 5.07 103.86 5.21Q104.17 5.35 104.42 5.49Q104.66 5.64 104.69 5.74L104.69 5.74Q104.23 6.55 103.78 8.17Q103.33 9.79 103.04 12.04L103.04 12.04Q102.97 12.60 102.92 13.31Q102.87 14.03 102.87 14.91L102.87 14.91Q102.87 15.22 102.87 15.54Q102.87 15.86 102.90 16.21L102.90 16.21Q102.87 16.23 102.84 16.23Q102.82 16.23 102.73 16.23L102.73 16.23Q102.54 16.23 102.28 16.16Q102.02 16.10 101.77 16.01Q101.53 15.92 101.35 15.81Q101.18 15.69 101.14 15.61L101.14 15.61Q101.12 15.43 101.12 15.25Q101.12 15.08 101.12 14.88L101.12 14.88Q101.12 14.01 101.18 13.12Q101.25 12.22 101.40 11.27L101.40 11.27Q101.21 11.26 100.88 11.23Q100.56 11.21 100.16 11.20Q99.76 11.19 99.31 11.16Q98.85 11.14 98.42 11.13L98.42 11.13Q98.08 11.76 97.79 12.38Q97.50 13.01 97.29 13.64L97.29 13.64Q97.05 14.31 96.90 14.98Q96.75 15.65 96.71 16.24ZM102.12 7.83L102.12 7.83Q102.17 7.63 102.25 7.29Q102.33 6.94 102.40 6.57L102.40 6.57Q102.05 6.69 101.62 7.03Q101.19 7.36 100.74 7.86Q100.28 8.36 99.81 8.98Q99.34 9.60 98.91 10.30L98.91 10.30Q100.09 10.21 101.58 10.18L101.58 10.18Q101.70 9.59 101.83 9.01Q101.96 8.43 102.12 7.83ZM112.43 12.43L112.43 12.43Q112.43 11.45 112.66 10.51Q112.90 9.56 113.32 8.71Q113.74 7.87 114.32 7.16Q114.90 6.45 115.59 5.94Q116.28 5.42 117.07 5.13Q117.85 4.84 118.68 4.84L118.68 4.84Q119.64 4.84 120.18 5.25Q120.72 5.66 120.72 6.38L120.72 6.38Q120.72 6.66 120.64 6.96Q120.57 7.25 120.42 7.54Q120.27 7.83 120.08 8.09Q119.88 8.36 119.64 8.55L119.64 8.55Q119.28 8.50 119.01 8.22Q118.75 7.95 118.68 7.59L118.68 7.59Q119.17 7.18 119.45 6.74Q119.74 6.30 119.74 5.94L119.74 5.94Q119.74 5.32 118.97 5.32L118.97 5.32Q118.65 5.32 118.31 5.45Q117.96 5.59 117.61 5.82Q117.26 6.06 116.94 6.40Q116.61 6.73 116.33 7.14L116.33 7.14Q114.38 9.94 114.38 12.87L114.38 12.87Q114.38 13.90 114.70 14.53Q115.02 15.16 115.56 15.27L115.56 15.27Q116.16 15.13 117.08 14.50Q118.01 13.87 119.10 12.87L119.10 12.87Q119.24 13.01 119.27 13.16L119.27 13.16Q118.86 13.69 118.43 14.18Q117.99 14.67 117.56 15.08Q117.14 15.48 116.72 15.79Q116.31 16.10 115.96 16.27L115.96 16.27Q114.23 16.24 113.33 15.27Q112.43 14.31 112.43 12.43ZM127.82 12.43L127.82 12.43Q127.82 11.45 128.05 10.51Q128.28 9.56 128.70 8.71Q129.12 7.87 129.70 7.16Q130.28 6.45 130.98 5.94Q131.67 5.42 132.45 5.13Q133.24 4.84 134.06 4.84L134.06 4.84Q135.03 4.84 135.57 5.25Q136.11 5.66 136.11 6.38L136.11 6.38Q136.11 6.66 136.03 6.96Q135.95 7.25 135.81 7.54Q135.66 7.83 135.46 8.09Q135.27 8.36 135.03 8.55L135.03 8.55Q134.67 8.50 134.40 8.22Q134.13 7.95 134.06 7.59L134.06 7.59Q134.55 7.18 134.84 6.74Q135.13 6.30 135.13 5.94L135.13 5.94Q135.13 5.32 134.36 5.32L134.36 5.32Q134.04 5.32 133.69 5.45Q133.35 5.59 133 5.82Q132.65 6.06 132.32 6.40Q131.99 6.73 131.71 7.14L131.71 7.14Q129.77 9.94 129.77 12.87L129.77 12.87Q129.77 13.90 130.09 14.53Q130.41 15.16 130.94 15.27L130.94 15.27Q131.54 15.13 132.47 14.50Q133.39 13.87 134.48 12.87L134.48 12.87Q134.62 13.01 134.65 13.16L134.65 13.16Q134.25 13.69 133.81 14.18Q133.38 14.67 132.95 15.08Q132.52 15.48 132.11 15.79Q131.70 16.10 131.35 16.27L131.35 16.27Q129.61 16.24 128.72 15.27Q127.82 14.31 127.82 12.43ZM148.41 9.21L148.41 9.21Q148.88 9.21 149.14 9.46Q149.39 9.72 149.39 10.16L149.39 10.16Q149.39 10.28 149.37 10.39Q149.35 10.51 149.32 10.60L149.32 10.60Q149.14 10.57 148.92 10.55Q148.69 10.53 148.39 10.53L148.39 10.53Q147.78 10.53 147.17 10.63Q146.55 10.74 145.99 10.81L145.99 10.81Q145.67 11.55 145.40 12.24Q145.14 12.94 144.95 13.51Q144.76 14.08 144.66 14.50Q144.55 14.92 144.54 15.13L144.54 15.13Q145.67 14.90 146.83 14.73Q147.98 14.56 149.25 14.48L149.25 14.48Q149.41 14.71 149.51 14.99Q149.62 15.27 149.62 15.60L149.62 15.60Q149.62 15.68 149.62 15.78Q149.62 15.88 149.59 15.97L149.59 15.97Q149.20 15.96 148.76 15.95Q148.33 15.95 147.63 15.95L147.63 15.95Q147.17 15.95 146.76 15.97Q146.34 15.99 145.92 16.03Q145.50 16.07 145.03 16.14Q144.56 16.21 143.98 16.31L143.98 16.31Q143.33 16.06 142.73 15.08L142.73 15.08Q142.97 14.57 143.40 13.54Q143.82 12.52 144.48 10.79L144.48 10.79Q143.85 10.60 143.65 10.09L143.65 10.09Q143.72 10.02 144.06 9.92Q144.40 9.81 144.89 9.70L144.89 9.70Q145.10 9.16 145.24 8.75Q145.39 8.34 145.50 7.99Q145.61 7.63 145.71 7.29Q145.80 6.94 145.88 6.54L145.88 6.54Q145.39 6.51 145.11 6.27Q144.83 6.02 144.83 5.63L144.83 5.63Q144.83 5.52 144.87 5.36Q144.90 5.21 144.94 5.10L144.94 5.10Q145.22 5.14 145.48 5.15Q145.74 5.17 146.16 5.17L146.16 5.17Q147.04 5.17 147.81 5.12Q148.58 5.07 149.21 5.01Q149.83 4.96 150.28 4.91Q150.72 4.86 150.96 4.86L150.96 4.86Q151.28 4.86 151.54 5.19Q151.79 5.53 151.91 6.15L151.91 6.15Q151.48 6.10 151.21 6.09Q150.93 6.08 150.72 6.08L150.72 6.08Q149.95 6.08 149.32 6.15Q148.68 6.23 148.09 6.31L148.09 6.31Q148.01 6.44 147.90 6.64Q147.80 6.83 147.63 7.18Q147.46 7.53 147.22 8.06Q146.97 8.60 146.62 9.39L146.62 9.39Q147.15 9.31 147.62 9.26Q148.09 9.21 148.41 9.21ZM167.29 5.74L167.29 5.74Q167.33 5.98 167.35 6.07Q167.37 6.16 167.37 6.31L167.37 6.31Q167.37 6.78 167.17 7.18Q166.96 7.57 166.61 7.74L166.61 7.74Q166.33 7.36 165.93 7.09Q165.52 6.82 165.04 6.64Q164.56 6.47 164.04 6.38Q163.52 6.30 163.03 6.30L163.03 6.30Q162.54 6.30 162.11 6.38Q161.69 6.45 161.36 6.59Q161.03 6.72 160.84 6.92Q160.65 7.11 160.65 7.36L160.65 7.36Q160.69 7.67 161.03 7.99Q161.36 8.30 161.85 8.60Q162.34 8.90 162.94 9.20Q163.53 9.49 164.11 9.76L164.11 9.76Q164.82 10.09 165.34 10.38Q165.86 10.67 166.19 11.01Q166.53 11.35 166.70 11.79Q166.87 12.22 166.87 12.84L166.87 12.84Q166.87 13.55 166.63 14.18Q166.39 14.80 165.94 15.26Q165.48 15.72 164.84 15.98Q164.19 16.24 163.39 16.24L163.39 16.24Q162.61 16.24 161.70 16.00Q160.79 15.76 160.00 15.35Q159.21 14.94 158.68 14.40Q158.16 13.86 158.16 13.26L158.16 13.26Q158.16 12.98 158.32 12.54Q158.48 12.11 158.90 11.63L158.90 11.63Q158.94 12.05 159.36 12.63Q159.77 13.20 160.59 13.69L160.59 13.69Q161.36 14.14 162.18 14.34Q163.00 14.55 163.72 14.55L163.72 14.55Q164.50 14.55 164.99 14.35Q165.48 14.15 165.76 13.88Q166.04 13.61 166.15 13.33Q166.26 13.05 166.28 12.88L166.28 12.88Q166.26 12.60 166.02 12.34Q165.77 12.08 165.36 11.84Q164.95 11.59 164.40 11.34Q163.86 11.09 163.27 10.84L163.27 10.84Q162.39 10.44 161.75 10.10Q161.11 9.76 160.70 9.40Q160.29 9.04 160.10 8.65Q159.91 8.26 159.91 7.76L159.91 7.76Q159.91 6.97 160.38 6.27Q160.86 5.57 161.76 5.21L161.76 5.21Q162.20 5.01 162.72 4.93Q163.23 4.84 163.72 4.84L163.72 4.84Q164.64 4.84 165.52 5.10Q166.40 5.35 167.29 5.74ZM184.11 5.74L184.11 5.74Q184.16 5.98 184.18 6.07Q184.20 6.16 184.20 6.31L184.20 6.31Q184.20 6.78 184.00 7.18Q183.79 7.57 183.44 7.74L183.44 7.74Q183.16 7.36 182.76 7.09Q182.35 6.82 181.87 6.64Q181.38 6.47 180.87 6.38Q180.35 6.30 179.86 6.30L179.86 6.30Q179.37 6.30 178.94 6.38Q178.51 6.45 178.19 6.59Q177.86 6.72 177.67 6.92Q177.48 7.11 177.48 7.36L177.48 7.36Q177.52 7.67 177.86 7.99Q178.19 8.30 178.68 8.60Q179.17 8.90 179.77 9.20Q180.36 9.49 180.94 9.76L180.94 9.76Q181.65 10.09 182.17 10.38Q182.69 10.67 183.02 11.01Q183.36 11.35 183.53 11.79Q183.69 12.22 183.69 12.84L183.69 12.84Q183.69 13.55 183.46 14.18Q183.22 14.80 182.76 15.26Q182.31 15.72 181.66 15.98Q181.02 16.24 180.22 16.24L180.22 16.24Q179.44 16.24 178.53 16.00Q177.62 15.76 176.83 15.35Q176.04 14.94 175.51 14.40Q174.99 13.86 174.99 13.26L174.99 13.26Q174.99 12.98 175.15 12.54Q175.31 12.11 175.73 11.63L175.73 11.63Q175.77 12.05 176.18 12.63Q176.60 13.20 177.42 13.69L177.42 13.69Q178.19 14.14 179.01 14.34Q179.83 14.55 180.54 14.55L180.54 14.55Q181.33 14.55 181.82 14.35Q182.31 14.15 182.59 13.88Q182.87 13.61 182.98 13.33Q183.09 13.05 183.11 12.88L183.11 12.88Q183.09 12.60 182.85 12.34Q182.60 12.08 182.19 11.84Q181.78 11.59 181.23 11.34Q180.68 11.09 180.10 10.84L180.10 10.84Q179.21 10.44 178.58 10.10Q177.94 9.76 177.53 9.40Q177.11 9.04 176.93 8.65Q176.74 8.26 176.74 7.76L176.74 7.76Q176.74 6.97 177.21 6.27Q177.69 5.57 178.58 5.21L178.58 5.21Q179.03 5.01 179.54 4.93Q180.05 4.84 180.54 4.84L180.54 4.84Q181.47 4.84 182.35 5.10Q183.23 5.35 184.11 5.74ZM198.27 4.98L198.27 4.98Q198.53 5.10 198.81 5.27Q199.09 5.45 199.33 5.63Q199.57 5.81 199.73 5.98Q199.89 6.16 199.91 6.27L199.91 6.27Q199.67 6.22 199.43 6.20Q199.19 6.17 199.00 6.17L199.00 6.17Q198.37 6.17 197.74 6.48Q197.12 6.79 196.56 7.32Q196.00 7.85 195.52 8.57Q195.05 9.28 194.71 10.09Q194.36 10.91 194.17 11.77Q193.97 12.64 193.97 13.48L193.97 13.48Q193.97 14.57 194.33 15.11Q194.70 15.64 195.40 15.64L195.40 15.64Q195.73 15.64 196.13 15.51Q196.52 15.37 196.92 15.13Q197.33 14.90 197.72 14.56Q198.11 14.22 198.45 13.82L198.45 13.82Q198.94 13.23 199.33 12.48Q199.72 11.73 200.00 10.89Q200.27 10.05 200.42 9.16Q200.56 8.27 200.56 7.42L200.56 7.42Q200.56 7.08 200.55 6.85Q200.54 6.62 200.52 6.46Q200.49 6.30 200.48 6.20Q200.47 6.10 200.45 6.03L200.45 6.03Q200.62 6.12 200.82 6.24Q201.03 6.36 201.20 6.59Q201.38 6.82 201.50 7.20Q201.61 7.57 201.61 8.18L201.61 8.18Q201.61 9.16 201.38 10.10Q201.15 11.05 200.74 11.90Q200.33 12.75 199.77 13.50Q199.21 14.24 198.56 14.80L198.56 14.80Q197.72 15.54 196.77 15.95Q195.82 16.35 194.94 16.35L194.94 16.35Q193.65 16.35 192.97 15.53Q192.29 14.71 192.29 13.12L192.29 13.12Q192.29 12.26 192.48 11.31Q192.67 10.36 193.01 9.44Q193.35 8.51 193.83 7.68Q194.31 6.85 194.87 6.21Q195.44 5.57 196.09 5.19Q196.74 4.82 197.43 4.82L197.43 4.82Q197.65 4.82 197.85 4.85Q198.04 4.89 198.27 4.98ZM218.46 7.46L218.46 7.46Q218.46 8.13 218.16 8.73Q217.85 9.32 217.32 9.79Q216.79 10.26 216.08 10.58Q215.36 10.91 214.52 11.02L214.52 11.02Q214.73 11.65 215.03 12.31Q215.33 12.98 215.68 13.59Q216.03 14.21 216.41 14.73Q216.79 15.25 217.15 15.58L217.15 15.58Q217.08 15.72 216.95 15.86Q216.82 16.00 216.64 16.12Q216.47 16.24 216.28 16.32Q216.09 16.39 215.92 16.39L215.92 16.39Q215.61 16.39 215.33 16.10Q215.05 15.81 214.77 15.17Q214.48 14.53 214.17 13.52Q213.85 12.50 213.47 11.07L213.47 11.07Q213.32 11.07 213.16 11.07Q213.01 11.07 212.93 11.05L212.93 11.05Q212.83 10.99 212.72 10.85L212.72 10.85Q212.34 11.66 212.04 12.38Q211.75 13.09 211.52 13.76Q211.29 14.42 211.11 15.04Q210.94 15.67 210.81 16.31L210.81 16.31Q210.34 16.20 209.99 15.90Q209.64 15.61 209.33 15.08L209.33 15.08Q209.38 14.95 209.45 14.83Q209.51 14.71 209.61 14.50Q209.71 14.28 209.85 13.94Q210.00 13.61 210.25 13.05Q210.49 12.49 210.83 11.68Q211.18 10.86 211.67 9.70L211.67 9.70Q211.89 9.18 212.05 8.79Q212.21 8.40 212.34 8.04Q212.46 7.69 212.57 7.33Q212.67 6.97 212.79 6.51L212.79 6.51Q212.14 6.73 211.59 7.01Q211.04 7.28 210.67 7.59L210.67 7.59Q210.55 7.50 210.41 7.34Q210.28 7.17 210.17 6.96Q210.06 6.76 209.97 6.55Q209.89 6.34 209.87 6.17L209.87 6.17Q210.29 5.89 210.90 5.66Q211.51 5.42 212.20 5.24Q212.88 5.07 213.60 4.97Q214.31 4.87 214.93 4.87L214.93 4.87Q216.61 4.87 217.53 5.56Q218.46 6.26 218.46 7.46ZM214.87 6.02L215.04 6.29Q214.94 6.41 214.73 6.79Q214.52 7.17 214.25 7.69Q213.98 8.22 213.68 8.83Q213.37 9.45 213.09 10.05L213.09 10.05Q214.14 10.05 215.03 9.86Q215.91 9.66 216.55 9.30Q217.20 8.95 217.55 8.46Q217.91 7.98 217.91 7.39L217.91 7.39Q217.91 6.69 217.41 6.32Q216.90 5.95 215.85 5.95L215.85 5.95Q215.61 5.95 215.38 5.97Q215.14 5.99 214.87 6.02L214.87 6.02ZM226.03 14.38L226.03 14.38Q226.03 13.87 226.19 13.07Q226.35 12.26 226.61 11.33Q226.87 10.40 227.21 9.43Q227.54 8.46 227.89 7.60Q228.24 6.75 228.58 6.10Q228.91 5.46 229.18 5.18L229.18 5.18Q229.32 5.19 229.55 5.29Q229.78 5.38 230.02 5.50Q230.26 5.63 230.45 5.78Q230.65 5.92 230.71 6.05L230.71 6.05Q230.30 6.41 229.90 7.15Q229.50 7.88 229.13 8.82Q228.76 9.76 228.44 10.80Q228.12 11.84 227.88 12.82Q227.64 13.80 227.51 14.64Q227.37 15.48 227.37 16.00L227.37 16.00Q227.37 16.24 227.42 16.30L227.42 16.30Q227.11 16.28 226.97 16.19Q226.83 16.10 226.75 16.00Q226.67 15.89 226.61 15.79Q226.55 15.68 226.42 15.62L226.42 15.62Q226.32 15.58 226.25 15.43Q226.18 15.27 226.14 15.09Q226.09 14.90 226.06 14.70Q226.03 14.50 226.03 14.38ZM242.80 9.21L242.80 9.21Q243.26 9.21 243.52 9.46Q243.78 9.72 243.78 10.16L243.78 10.16Q243.78 10.28 243.76 10.39Q243.74 10.51 243.71 10.60L243.71 10.60Q243.53 10.57 243.31 10.55Q243.08 10.53 242.77 10.53L242.77 10.53Q242.17 10.53 241.56 10.63Q240.94 10.74 240.38 10.81L240.38 10.81Q240.06 11.55 239.79 12.24Q239.53 12.94 239.34 13.51Q239.15 14.08 239.04 14.50Q238.94 14.92 238.92 15.13L238.92 15.13Q240.06 14.90 241.21 14.73Q242.37 14.56 243.64 14.48L243.64 14.48Q243.80 14.71 243.90 14.99Q244.01 15.27 244.01 15.60L244.01 15.60Q244.01 15.68 244.01 15.78Q244.01 15.88 243.98 15.97L243.98 15.97Q243.59 15.96 243.15 15.95Q242.72 15.95 242.02 15.95L242.02 15.95Q241.56 15.95 241.14 15.97Q240.73 15.99 240.31 16.03Q239.89 16.07 239.42 16.14Q238.95 16.21 238.36 16.31L238.36 16.31Q237.72 16.06 237.12 15.08L237.12 15.08Q237.36 14.57 237.78 13.54Q238.21 12.52 238.87 10.79L238.87 10.79Q238.24 10.60 238.04 10.09L238.04 10.09Q238.11 10.02 238.45 9.92Q238.78 9.81 239.27 9.70L239.27 9.70Q239.48 9.16 239.63 8.75Q239.78 8.34 239.89 7.99Q240.00 7.63 240.09 7.29Q240.18 6.94 240.27 6.54L240.27 6.54Q239.78 6.51 239.50 6.27Q239.22 6.02 239.22 5.63L239.22 5.63Q239.22 5.52 239.25 5.36Q239.29 5.21 239.33 5.10L239.33 5.10Q239.61 5.14 239.87 5.15Q240.13 5.17 240.55 5.17L240.55 5.17Q241.43 5.17 242.20 5.12Q242.97 5.07 243.59 5.01Q244.22 4.96 244.66 4.91Q245.11 4.86 245.35 4.86L245.35 4.86Q245.67 4.86 245.92 5.19Q246.18 5.53 246.30 6.15L246.30 6.15Q245.87 6.10 245.60 6.09Q245.32 6.08 245.11 6.08L245.11 6.08Q244.34 6.08 243.71 6.15Q243.07 6.23 242.48 6.31L242.48 6.31Q242.40 6.44 242.29 6.64Q242.19 6.83 242.02 7.18Q241.85 7.53 241.61 8.06Q241.36 8.60 241.01 9.39L241.01 9.39Q241.54 9.31 242.01 9.26Q242.48 9.21 242.80 9.21ZM261.67 5.74L261.67 5.74Q261.72 5.98 261.74 6.07Q261.76 6.16 261.76 6.31L261.76 6.31Q261.76 6.78 261.56 7.18Q261.35 7.57 261.00 7.74L261.00 7.74Q260.72 7.36 260.32 7.09Q259.91 6.82 259.43 6.64Q258.94 6.47 258.43 6.38Q257.91 6.30 257.42 6.30L257.42 6.30Q256.93 6.30 256.50 6.38Q256.07 6.45 255.75 6.59Q255.42 6.72 255.23 6.92Q255.04 7.11 255.04 7.36L255.04 7.36Q255.08 7.67 255.42 7.99Q255.75 8.30 256.24 8.60Q256.73 8.90 257.33 9.20Q257.92 9.49 258.50 9.76L258.50 9.76Q259.21 10.09 259.73 10.38Q260.25 10.67 260.58 11.01Q260.92 11.35 261.09 11.79Q261.25 12.22 261.25 12.84L261.25 12.84Q261.25 13.55 261.02 14.18Q260.78 14.80 260.32 15.26Q259.87 15.72 259.22 15.98Q258.58 16.24 257.78 16.24L257.78 16.24Q257.00 16.24 256.09 16.00Q255.18 15.76 254.39 15.35Q253.60 14.94 253.07 14.40Q252.55 13.86 252.55 13.26L252.55 13.26Q252.55 12.98 252.71 12.54Q252.87 12.11 253.29 11.63L253.29 11.63Q253.33 12.05 253.74 12.63Q254.16 13.20 254.98 13.69L254.98 13.69Q255.75 14.14 256.57 14.34Q257.39 14.55 258.10 14.55L258.10 14.55Q258.89 14.55 259.38 14.35Q259.87 14.15 260.15 13.88Q260.43 13.61 260.54 13.33Q260.65 13.05 260.67 12.88L260.67 12.88Q260.65 12.60 260.41 12.34Q260.16 12.08 259.75 11.84Q259.34 11.59 258.79 11.34Q258.24 11.09 257.66 10.84L257.66 10.84Q256.77 10.44 256.14 10.10Q255.50 9.76 255.09 9.40Q254.67 9.04 254.49 8.65Q254.30 8.26 254.30 7.76L254.30 7.76Q254.30 6.97 254.77 6.27Q255.25 5.57 256.14 5.21L256.14 5.21Q256.59 5.01 257.10 4.93Q257.61 4.84 258.10 4.84L258.10 4.84Q259.03 4.84 259.91 5.10Q260.79 5.35 261.67 5.74ZM269.71 15.71L269.71 15.71Q269.49 15.68 269.24 15.52Q269.00 15.36 268.93 15.16L268.93 15.16Q268.93 14.99 268.98 14.73Q269.02 14.46 269.09 14.19Q269.16 13.92 269.23 13.67Q269.30 13.43 269.33 13.30L269.33 13.30Q269.50 13.30 269.76 13.38Q270.02 13.47 270.29 13.62Q270.56 13.76 270.81 13.95Q271.05 14.14 271.18 14.34L271.18 14.34Q271.05 14.62 270.86 14.87Q270.66 15.12 270.45 15.31Q270.23 15.50 270.03 15.60Q269.84 15.71 269.71 15.71ZM299.21 5.74L299.21 5.74Q299.25 5.98 299.27 6.07Q299.29 6.16 299.29 6.31L299.29 6.31Q299.29 6.78 299.09 7.18Q298.89 7.57 298.54 7.74L298.54 7.74Q298.26 7.36 297.85 7.09Q297.44 6.82 296.96 6.64Q296.48 6.47 295.96 6.38Q295.44 6.30 294.95 6.30L294.95 6.30Q294.46 6.30 294.04 6.38Q293.61 6.45 293.28 6.59Q292.95 6.72 292.76 6.92Q292.57 7.11 292.57 7.36L292.57 7.36Q292.61 7.67 292.95 7.99Q293.29 8.30 293.78 8.60Q294.27 8.90 294.86 9.20Q295.46 9.49 296.03 9.76L296.03 9.76Q296.74 10.09 297.26 10.38Q297.78 10.67 298.12 11.01Q298.45 11.35 298.62 11.79Q298.79 12.22 298.79 12.84L298.79 12.84Q298.79 13.55 298.55 14.18Q298.31 14.80 297.86 15.26Q297.40 15.72 296.76 15.98Q296.11 16.24 295.32 16.24L295.32 16.24Q294.53 16.24 293.62 16.00Q292.71 15.76 291.92 15.35Q291.13 14.94 290.61 14.40Q290.08 13.86 290.08 13.26L290.08 13.26Q290.08 12.98 290.24 12.54Q290.40 12.11 290.82 11.63L290.82 11.63Q290.86 12.05 291.28 12.63Q291.69 13.20 292.52 13.69L292.52 13.69Q293.29 14.14 294.11 14.34Q294.92 14.55 295.64 14.55L295.64 14.55Q296.42 14.55 296.91 14.35Q297.40 14.15 297.68 13.88Q297.96 13.61 298.07 13.33Q298.19 13.05 298.20 12.88L298.20 12.88Q298.19 12.60 297.94 12.34Q297.70 12.08 297.28 11.84Q296.87 11.59 296.32 11.34Q295.78 11.09 295.19 10.84L295.19 10.84Q294.31 10.44 293.67 10.10Q293.03 9.76 292.62 9.40Q292.21 9.04 292.02 8.65Q291.83 8.26 291.83 7.76L291.83 7.76Q291.83 6.97 292.31 6.27Q292.78 5.57 293.68 5.21L293.68 5.21Q294.13 5.01 294.64 4.93Q295.15 4.84 295.64 4.84L295.64 4.84Q296.56 4.84 297.44 5.10Q298.33 5.35 299.21 5.74ZM312.69 16.21L312.69 16.21Q312.66 16.23 312.63 16.23Q312.61 16.23 312.52 16.23L312.52 16.23Q312.33 16.23 312.07 16.16Q311.81 16.10 311.56 16.01Q311.32 15.92 311.14 15.81Q310.97 15.69 310.93 15.61L310.93 15.61Q310.91 15.41 310.91 15.20Q310.91 14.99 310.91 14.80L310.91 14.80Q310.91 13.23 311.14 11.52Q311.37 9.81 311.91 7.83L311.91 7.83Q311.96 7.63 312.03 7.33Q312.09 7.03 312.16 6.68L312.16 6.68Q311.82 6.94 311.36 7.53Q310.90 8.11 310.39 8.90Q309.88 9.69 309.37 10.63Q308.85 11.58 308.43 12.55Q308.01 13.52 307.71 14.48Q307.41 15.43 307.34 16.24L307.34 16.24Q306.67 16.04 306.41 15.85Q306.15 15.65 306.15 15.37L306.15 15.37Q306.15 15.12 306.31 14.66Q306.46 14.20 306.74 13.57Q307.02 12.94 307.43 12.16Q307.83 11.38 308.32 10.49L308.32 10.49Q308.88 9.46 309.42 8.57Q309.96 7.67 310.48 6.94Q311.00 6.22 311.49 5.68Q311.99 5.15 312.48 4.87L312.48 4.87Q312.68 4.87 313.01 4.97Q313.33 5.07 313.65 5.21Q313.96 5.35 314.21 5.49Q314.45 5.64 314.48 5.74L314.48 5.74Q314.29 6.13 314.02 6.92Q313.75 7.70 313.48 8.69Q313.21 9.69 312.96 10.80Q312.72 11.91 312.58 12.94L312.58 12.94Q312.90 12.17 313.33 11.33Q313.75 10.50 314.23 9.68Q314.71 8.86 315.20 8.09Q315.70 7.32 316.18 6.69Q316.65 6.05 317.07 5.57Q317.48 5.10 317.80 4.87L317.80 4.87Q318.00 4.87 318.33 4.97Q318.65 5.07 318.97 5.21Q319.28 5.35 319.53 5.49Q319.77 5.64 319.80 5.74L319.80 5.74Q319.35 6.54 319.02 7.69Q318.68 8.83 318.45 10.09Q318.22 11.35 318.10 12.59Q317.98 13.83 317.98 14.81L317.98 14.81Q317.98 15.13 317.98 15.48Q317.98 15.83 318.01 16.21L318.01 16.21Q317.81 16.21 317.54 16.16Q317.27 16.11 317.01 16.03Q316.75 15.95 316.54 15.84Q316.33 15.74 316.25 15.61L316.25 15.61Q316.23 15.41 316.23 15.20Q316.23 14.99 316.23 14.80L316.23 14.80Q316.23 13.23 316.46 11.52Q316.69 9.81 317.23 7.83L317.23 7.83Q317.28 7.63 317.35 7.29Q317.42 6.96 317.49 6.59L317.49 6.59Q317.10 6.79 316.60 7.34Q316.11 7.90 315.60 8.69Q315.08 9.48 314.59 10.44Q314.09 11.41 313.69 12.41Q313.29 13.41 313.02 14.40Q312.75 15.39 312.69 16.21ZM327.73 16.24L327.73 16.24Q327.05 16.04 326.80 15.85Q326.54 15.65 326.54 15.36L326.54 15.36Q326.54 15.13 326.66 14.73Q326.79 14.32 327.03 13.77Q327.28 13.22 327.62 12.54Q327.96 11.87 328.40 11.10L328.40 11.10Q328.03 11.09 327.75 11.08Q327.46 11.07 327.28 11.07L327.28 11.07Q327.36 10.86 327.75 10.71Q328.15 10.56 328.79 10.44L328.79 10.44Q329.34 9.53 329.96 8.71Q330.58 7.88 331.21 7.19Q331.84 6.50 332.47 5.97Q333.10 5.45 333.68 5.14L333.68 5.14Q333.69 5.04 333.70 4.97Q333.70 4.90 333.70 4.87L333.70 4.87Q333.90 4.87 334.23 4.97Q334.56 5.07 334.87 5.21Q335.19 5.35 335.43 5.49Q335.68 5.64 335.71 5.74L335.71 5.74Q335.24 6.55 334.80 8.17Q334.35 9.79 334.05 12.04L334.05 12.04Q333.98 12.60 333.94 13.31Q333.89 14.03 333.89 14.91L333.89 14.91Q333.89 15.22 333.89 15.54Q333.89 15.86 333.91 16.21L333.91 16.21Q333.89 16.23 333.86 16.23Q333.83 16.23 333.75 16.23L333.75 16.23Q333.55 16.23 333.29 16.16Q333.03 16.10 332.79 16.01Q332.54 15.92 332.37 15.81Q332.19 15.69 332.15 15.61L332.15 15.61Q332.14 15.43 332.14 15.25Q332.14 15.08 332.14 14.88L332.14 14.88Q332.14 14.01 332.20 13.12Q332.26 12.22 332.42 11.27L332.42 11.27Q332.22 11.26 331.90 11.23Q331.58 11.21 331.18 11.20Q330.78 11.19 330.32 11.16Q329.87 11.14 329.43 11.13L329.43 11.13Q329.10 11.76 328.80 12.38Q328.51 13.01 328.30 13.64L328.30 13.64Q328.06 14.31 327.92 14.98Q327.77 15.65 327.73 16.24ZM333.13 7.83L333.13 7.83Q333.19 7.63 333.26 7.29Q333.34 6.94 333.41 6.57L333.41 6.57Q333.06 6.69 332.63 7.03Q332.21 7.36 331.75 7.86Q331.30 8.36 330.83 8.98Q330.36 9.60 329.92 10.30L329.92 10.30Q331.10 10.21 332.60 10.18L332.60 10.18Q332.71 9.59 332.84 9.01Q332.98 8.43 333.13 7.83ZM352.60 7.46L352.60 7.46Q352.60 8.13 352.30 8.73Q352.00 9.32 351.47 9.79Q350.94 10.26 350.22 10.58Q349.51 10.91 348.67 11.02L348.67 11.02Q348.88 11.65 349.18 12.31Q349.48 12.98 349.83 13.59Q350.18 14.21 350.56 14.73Q350.94 15.25 351.30 15.58L351.30 15.58Q351.23 15.72 351.10 15.86Q350.97 16.00 350.79 16.12Q350.62 16.24 350.43 16.32Q350.24 16.39 350.07 16.39L350.07 16.39Q349.76 16.39 349.48 16.10Q349.20 15.81 348.92 15.17Q348.63 14.53 348.31 13.52Q348.00 12.50 347.62 11.07L347.62 11.07Q347.47 11.07 347.31 11.07Q347.16 11.07 347.07 11.05L347.07 11.05Q346.98 10.99 346.86 10.85L346.86 10.85Q346.49 11.66 346.19 12.38Q345.90 13.09 345.67 13.76Q345.44 14.42 345.26 15.04Q345.09 15.67 344.96 16.31L344.96 16.31Q344.48 16.20 344.13 15.90Q343.78 15.61 343.48 15.08L343.48 15.08Q343.53 14.95 343.60 14.83Q343.66 14.71 343.76 14.50Q343.85 14.28 344.00 13.94Q344.15 13.61 344.39 13.05Q344.64 12.49 344.98 11.68Q345.32 10.86 345.81 9.70L345.81 9.70Q346.04 9.18 346.20 8.79Q346.36 8.40 346.49 8.04Q346.61 7.69 346.72 7.33Q346.82 6.97 346.93 6.51L346.93 6.51Q346.29 6.73 345.74 7.01Q345.18 7.28 344.82 7.59L344.82 7.59Q344.69 7.50 344.56 7.34Q344.43 7.17 344.32 6.96Q344.20 6.76 344.12 6.55Q344.04 6.34 344.02 6.17L344.02 6.17Q344.44 5.89 345.05 5.66Q345.66 5.42 346.35 5.24Q347.03 5.07 347.75 4.97Q348.46 4.87 349.08 4.87L349.08 4.87Q350.76 4.87 351.68 5.56Q352.60 6.26 352.60 7.46ZM349.02 6.02L349.19 6.29Q349.09 6.41 348.88 6.79Q348.67 7.17 348.40 7.69Q348.12 8.22 347.82 8.83Q347.52 9.45 347.24 10.05L347.24 10.05Q348.29 10.05 349.17 9.86Q350.06 9.66 350.70 9.30Q351.34 8.95 351.70 8.46Q352.06 7.98 352.06 7.39L352.06 7.39Q352.06 6.69 351.55 6.32Q351.05 5.95 350 5.95L350 5.95Q349.76 5.95 349.52 5.97Q349.29 5.99 349.02 6.02L349.02 6.02ZM361.96 6.69L361.96 6.69Q361.40 6.69 361.09 6.38Q360.79 6.06 360.79 5.61L360.79 5.61Q360.79 5.50 360.83 5.35Q360.86 5.19 360.92 5.08L360.92 5.08Q361.10 5.17 361.46 5.20Q361.82 5.24 362.29 5.24L362.29 5.24Q363.01 5.24 363.91 5.17Q364.81 5.11 365.64 5.04Q366.46 4.97 367.09 4.91Q367.72 4.84 367.91 4.84L367.91 4.84Q368.42 4.84 368.65 5.23Q368.89 5.61 369.00 6.26L369.00 6.26Q368.63 6.23 368.28 6.21Q367.92 6.19 367.67 6.19L367.67 6.19Q367.22 6.19 366.76 6.22Q366.31 6.24 365.85 6.30L365.85 6.30Q365.65 6.71 365.41 7.26Q365.18 7.81 364.94 8.41Q364.71 9.02 364.50 9.61Q364.29 10.21 364.14 10.68L364.14 10.68Q363.83 11.61 363.60 12.39Q363.37 13.17 363.19 13.85Q363.02 14.53 362.89 15.15Q362.77 15.76 362.67 16.35L362.67 16.35Q361.73 16.21 361.10 15.18L361.10 15.18Q361.21 14.74 361.38 14.23Q361.54 13.72 361.75 13.07Q361.97 12.42 362.26 11.59Q362.56 10.77 362.94 9.72L362.94 9.72Q363.08 9.32 363.23 8.90Q363.38 8.47 363.53 8.05Q363.68 7.63 363.80 7.24Q363.92 6.85 364 6.52L364 6.52Q363.41 6.59 362.89 6.64Q362.36 6.69 361.96 6.69ZM380.20 9.21L380.20 9.21Q380.66 9.21 380.92 9.46Q381.18 9.72 381.18 10.16L381.18 10.16Q381.18 10.28 381.16 10.39Q381.14 10.51 381.11 10.60L381.11 10.60Q380.93 10.57 380.70 10.55Q380.48 10.53 380.17 10.53L380.17 10.53Q379.57 10.53 378.95 10.63Q378.34 10.74 377.78 10.81L377.78 10.81Q377.45 11.55 377.19 12.24Q376.92 12.94 376.73 13.51Q376.54 14.08 376.44 14.50Q376.33 14.92 376.32 15.13L376.32 15.13Q377.45 14.90 378.61 14.73Q379.76 14.56 381.04 14.48L381.04 14.48Q381.19 14.71 381.30 14.99Q381.40 15.27 381.40 15.60L381.40 15.60Q381.40 15.68 381.40 15.78Q381.40 15.88 381.37 15.97L381.37 15.97Q380.98 15.96 380.55 15.95Q380.11 15.95 379.41 15.95L379.41 15.95Q378.95 15.95 378.54 15.97Q378.13 15.99 377.71 16.03Q377.29 16.07 376.82 16.14Q376.35 16.21 375.76 16.31L375.76 16.31Q375.12 16.06 374.51 15.08L374.51 15.08Q374.75 14.57 375.18 13.54Q375.61 12.52 376.26 10.79L376.26 10.79Q375.63 10.60 375.44 10.09L375.44 10.09Q375.51 10.02 375.84 9.92Q376.18 9.81 376.67 9.70L376.67 9.70Q376.88 9.16 377.03 8.75Q377.17 8.34 377.29 7.99Q377.40 7.63 377.49 7.29Q377.58 6.94 377.66 6.54L377.66 6.54Q377.17 6.51 376.89 6.27Q376.61 6.02 376.61 5.63L376.61 5.63Q376.61 5.52 376.65 5.36Q376.68 5.21 376.73 5.10L376.73 5.10Q377.01 5.14 377.26 5.15Q377.52 5.17 377.94 5.17L377.94 5.17Q378.83 5.17 379.60 5.12Q380.37 5.07 380.99 5.01Q381.61 4.96 382.06 4.91Q382.51 4.86 382.75 4.86L382.75 4.86Q383.07 4.86 383.32 5.19Q383.57 5.53 383.70 6.15L383.70 6.15Q383.26 6.10 382.99 6.09Q382.72 6.08 382.51 6.08L382.51 6.08Q381.74 6.08 381.10 6.15Q380.46 6.23 379.88 6.31L379.88 6.31Q379.79 6.44 379.69 6.64Q379.58 6.83 379.41 7.18Q379.25 7.53 379.00 8.06Q378.76 8.60 378.41 9.39L378.41 9.39Q378.94 9.31 379.41 9.26Q379.88 9.21 380.20 9.21ZM399.46 7.46L399.46 7.46Q399.46 8.13 399.16 8.73Q398.86 9.32 398.33 9.79Q397.80 10.26 397.08 10.58Q396.37 10.91 395.53 11.02L395.53 11.02Q395.74 11.65 396.04 12.31Q396.34 12.98 396.69 13.59Q397.04 14.21 397.42 14.73Q397.80 15.25 398.16 15.58L398.16 15.58Q398.09 15.72 397.96 15.86Q397.82 16.00 397.65 16.12Q397.47 16.24 397.28 16.32Q397.10 16.39 396.93 16.39L396.93 16.39Q396.62 16.39 396.34 16.10Q396.06 15.81 395.77 15.17Q395.49 14.53 395.17 13.52Q394.86 12.50 394.48 11.07L394.48 11.07Q394.32 11.07 394.17 11.07Q394.02 11.07 393.93 11.05L393.93 11.05Q393.83 10.99 393.72 10.85L393.72 10.85Q393.34 11.66 393.05 12.38Q392.76 13.09 392.52 13.76Q392.29 14.42 392.12 15.04Q391.94 15.67 391.82 16.31L391.82 16.31Q391.34 16.20 390.99 15.90Q390.64 15.61 390.33 15.08L390.33 15.08Q390.39 14.95 390.45 14.83Q390.52 14.71 390.61 14.50Q390.71 14.28 390.86 13.94Q391.01 13.61 391.25 13.05Q391.50 12.49 391.84 11.68Q392.18 10.86 392.67 9.70L392.67 9.70Q392.90 9.18 393.06 8.79Q393.22 8.40 393.34 8.04Q393.47 7.69 393.57 7.33Q393.68 6.97 393.79 6.51L393.79 6.51Q393.15 6.73 392.59 7.01Q392.04 7.28 391.68 7.59L391.68 7.59Q391.55 7.50 391.42 7.34Q391.29 7.17 391.17 6.96Q391.06 6.76 390.98 6.55Q390.89 6.34 390.88 6.17L390.88 6.17Q391.30 5.89 391.91 5.66Q392.52 5.42 393.20 5.24Q393.89 5.07 394.60 4.97Q395.32 4.87 395.93 4.87L395.93 4.87Q397.61 4.87 398.54 5.56Q399.46 6.26 399.46 7.46ZM395.88 6.02L396.05 6.29Q395.95 6.41 395.74 6.79Q395.53 7.17 395.25 7.69Q394.98 8.22 394.68 8.83Q394.38 9.45 394.10 10.05L394.10 10.05Q395.15 10.05 396.03 9.86Q396.91 9.66 397.56 9.30Q398.20 8.95 398.56 8.46Q398.92 7.98 398.92 7.39L398.92 7.39Q398.92 6.69 398.41 6.32Q397.91 5.95 396.86 5.95L396.86 5.95Q396.62 5.95 396.38 5.97Q396.14 5.99 395.88 6.02L395.88 6.02ZM417.52 12.43L417.52 12.43Q417.52 11.45 417.75 10.51Q417.98 9.56 418.40 8.71Q418.82 7.87 419.40 7.16Q419.99 6.45 420.68 5.94Q421.37 5.42 422.16 5.13Q422.94 4.84 423.77 4.84L423.77 4.84Q424.73 4.84 425.27 5.25Q425.81 5.66 425.81 6.38L425.81 6.38Q425.81 6.66 425.73 6.96Q425.66 7.25 425.51 7.54Q425.36 7.83 425.17 8.09Q424.97 8.36 424.73 8.55L424.73 8.55Q424.37 8.50 424.10 8.22Q423.84 7.95 423.77 7.59L423.77 7.59Q424.26 7.18 424.54 6.74Q424.83 6.30 424.83 5.94L424.83 5.94Q424.83 5.32 424.06 5.32L424.06 5.32Q423.74 5.32 423.39 5.45Q423.05 5.59 422.70 5.82Q422.35 6.06 422.02 6.40Q421.69 6.73 421.41 7.14L421.41 7.14Q419.47 9.94 419.47 12.87L419.47 12.87Q419.47 13.90 419.79 14.53Q420.11 15.16 420.64 15.27L420.64 15.27Q421.25 15.13 422.17 14.50Q423.09 13.87 424.19 12.87L424.19 12.87Q424.33 13.01 424.35 13.16L424.35 13.16Q423.95 13.69 423.51 14.18Q423.08 14.67 422.65 15.08Q422.23 15.48 421.81 15.79Q421.40 16.10 421.05 16.27L421.05 16.27Q419.31 16.24 418.42 15.27Q417.52 14.31 417.52 12.43ZM437.86 14.36L437.86 14.36Q437.86 13.78 438.06 12.85Q438.26 11.93 438.58 10.88L438.58 10.88Q437.65 10.95 436.72 11.06Q435.79 11.17 435.11 11.19L435.11 11.19Q434.48 12.66 434.10 13.89Q433.73 15.13 433.52 16.31L433.52 16.31Q432.99 16.18 432.64 15.87Q432.29 15.55 432.00 15.08L432.00 15.08Q432.11 14.85 432.26 14.50Q432.40 14.15 432.61 13.66Q432.81 13.16 433.07 12.50Q433.33 11.83 433.66 10.95L433.66 10.95Q433.20 10.75 433.05 10.40L433.05 10.40Q433.12 10.35 433.36 10.28Q433.61 10.22 433.97 10.15L433.97 10.15L434.15 9.70Q434.45 8.95 434.64 8.43Q434.83 7.91 434.96 7.41Q435.09 6.92 435.21 6.31Q435.33 5.71 435.50 4.79L435.50 4.79Q436.09 4.90 436.57 5.31Q437.05 5.71 437.40 6.29L437.40 6.29Q437.28 6.45 437.09 6.79Q436.91 7.13 436.69 7.59Q436.48 8.06 436.23 8.64Q435.97 9.23 435.68 9.87L435.68 9.87Q436.55 9.76 437.44 9.66Q438.33 9.56 439.01 9.52L439.01 9.52Q439.26 8.79 439.54 8.10Q439.81 7.41 440.08 6.83Q440.34 6.26 440.59 5.82Q440.83 5.39 441.03 5.18L441.03 5.18Q441.17 5.19 441.40 5.29Q441.63 5.38 441.87 5.50Q442.11 5.63 442.30 5.78Q442.50 5.92 442.57 6.05L442.57 6.05Q442.32 6.29 442.06 6.66Q441.81 7.04 441.57 7.53Q441.32 8.02 441.08 8.60Q440.85 9.17 440.64 9.79L440.64 9.79Q440.92 10.04 440.92 10.42L440.92 10.42Q440.92 10.68 440.80 10.91L440.80 10.91Q440.68 10.88 440.55 10.87Q440.43 10.86 440.29 10.85L440.29 10.85Q440.05 11.61 439.85 12.35Q439.66 13.09 439.52 13.76Q439.39 14.43 439.31 14.99Q439.24 15.55 439.24 15.93L439.24 15.93Q439.24 16.07 439.24 16.16Q439.25 16.24 439.26 16.30L439.26 16.30Q438.96 16.28 438.82 16.19Q438.68 16.10 438.61 16.00Q438.54 15.89 438.48 15.79Q438.42 15.68 438.30 15.62L438.30 15.62Q438.20 15.58 438.12 15.43Q438.03 15.27 437.98 15.08Q437.92 14.88 437.89 14.69Q437.86 14.49 437.86 14.36ZM455.31 4.98L455.31 4.98Q455.57 5.10 455.85 5.27Q456.13 5.45 456.37 5.63Q456.61 5.81 456.77 5.98Q456.93 6.16 456.95 6.27L456.95 6.27Q456.71 6.22 456.47 6.20Q456.23 6.17 456.04 6.17L456.04 6.17Q455.41 6.17 454.78 6.48Q454.16 6.79 453.60 7.32Q453.04 7.85 452.56 8.57Q452.09 9.28 451.74 10.09Q451.40 10.91 451.21 11.77Q451.01 12.64 451.01 13.48L451.01 13.48Q451.01 14.57 451.37 15.11Q451.74 15.64 452.44 15.64L452.44 15.64Q452.77 15.64 453.17 15.51Q453.56 15.37 453.96 15.13Q454.37 14.90 454.76 14.56Q455.15 14.22 455.49 13.82L455.49 13.82Q455.98 13.23 456.37 12.48Q456.76 11.73 457.04 10.89Q457.31 10.05 457.46 9.16Q457.60 8.27 457.60 7.42L457.60 7.42Q457.60 7.08 457.59 6.85Q457.58 6.62 457.55 6.46Q457.53 6.30 457.52 6.20Q457.51 6.10 457.49 6.03L457.49 6.03Q457.66 6.12 457.86 6.24Q458.07 6.36 458.24 6.59Q458.42 6.82 458.53 7.20Q458.65 7.57 458.65 8.18L458.65 8.18Q458.65 9.16 458.42 10.10Q458.19 11.05 457.78 11.90Q457.37 12.75 456.81 13.50Q456.25 14.24 455.60 14.80L455.60 14.80Q454.76 15.54 453.81 15.95Q452.86 16.35 451.98 16.35L451.98 16.35Q450.69 16.35 450.01 15.53Q449.33 14.71 449.33 13.12L449.33 13.12Q449.33 12.26 449.52 11.31Q449.71 10.36 450.05 9.44Q450.39 8.51 450.87 7.68Q451.35 6.85 451.91 6.21Q452.48 5.57 453.13 5.19Q453.78 4.82 454.47 4.82L454.47 4.82Q454.69 4.82 454.89 4.85Q455.08 4.89 455.31 4.98ZM466.40 14.38L466.40 14.38Q466.40 13.87 466.56 13.07Q466.72 12.26 466.98 11.33Q467.24 10.40 467.57 9.43Q467.91 8.46 468.26 7.60Q468.61 6.75 468.94 6.10Q469.28 5.46 469.55 5.18L469.55 5.18Q469.69 5.19 469.92 5.29Q470.15 5.38 470.39 5.50Q470.62 5.63 470.82 5.78Q471.02 5.92 471.07 6.05L471.07 6.05Q470.67 6.41 470.27 7.15Q469.87 7.88 469.50 8.82Q469.13 9.76 468.80 10.80Q468.48 11.84 468.24 12.82Q468.01 13.80 467.87 14.64Q467.74 15.48 467.74 16.00L467.74 16.00Q467.74 16.24 467.78 16.30L467.78 16.30Q467.47 16.28 467.33 16.19Q467.19 16.10 467.12 16.00Q467.04 15.89 466.98 15.79Q466.91 15.68 466.79 15.62L466.79 15.62Q466.69 15.58 466.62 15.43Q466.55 15.27 466.50 15.09Q466.45 14.90 466.42 14.70Q466.40 14.50 466.40 14.38ZM477.96 12.43L477.96 12.43Q477.96 11.45 478.19 10.51Q478.42 9.56 478.84 8.71Q479.26 7.87 479.84 7.16Q480.42 6.45 481.12 5.94Q481.81 5.42 482.59 5.13Q483.38 4.84 484.20 4.84L484.20 4.84Q485.17 4.84 485.71 5.25Q486.25 5.66 486.25 6.38L486.25 6.38Q486.25 6.66 486.17 6.96Q486.09 7.25 485.95 7.54Q485.80 7.83 485.60 8.09Q485.41 8.36 485.17 8.55L485.17 8.55Q484.81 8.50 484.54 8.22Q484.27 7.95 484.20 7.59L484.20 7.59Q484.69 7.18 484.98 6.74Q485.27 6.30 485.27 5.94L485.27 5.94Q485.27 5.32 484.50 5.32L484.50 5.32Q484.18 5.32 483.83 5.45Q483.49 5.59 483.14 5.82Q482.79 6.06 482.46 6.40Q482.13 6.73 481.85 7.14L481.85 7.14Q479.91 9.94 479.91 12.87L479.91 12.87Q479.91 13.90 480.23 14.53Q480.55 15.16 481.08 15.27L481.08 15.27Q481.68 15.13 482.61 14.50Q483.53 13.87 484.62 12.87L484.62 12.87Q484.76 13.01 484.79 13.16L484.79 13.16Q484.39 13.69 483.95 14.18Q483.52 14.67 483.09 15.08Q482.66 15.48 482.25 15.79Q481.84 16.10 481.49 16.27L481.49 16.27Q479.75 16.24 478.86 15.27Q477.96 14.31 477.96 12.43ZM498.55 9.21L498.55 9.21Q499.02 9.21 499.27 9.46Q499.53 9.72 499.53 10.16L499.53 10.16Q499.53 10.28 499.51 10.39Q499.49 10.51 499.46 10.60L499.46 10.60Q499.28 10.57 499.06 10.55Q498.83 10.53 498.53 10.53L498.53 10.53Q497.92 10.53 497.31 10.63Q496.69 10.74 496.13 10.81L496.13 10.81Q495.81 11.55 495.54 12.24Q495.28 12.94 495.09 13.51Q494.90 14.08 494.80 14.50Q494.69 14.92 494.68 15.13L494.68 15.13Q495.81 14.90 496.97 14.73Q498.12 14.56 499.39 14.48L499.39 14.48Q499.55 14.71 499.65 14.99Q499.76 15.27 499.76 15.60L499.76 15.60Q499.76 15.68 499.76 15.78Q499.76 15.88 499.73 15.97L499.73 15.97Q499.34 15.96 498.90 15.95Q498.47 15.95 497.77 15.95L497.77 15.95Q497.31 15.95 496.89 15.97Q496.48 15.99 496.06 16.03Q495.64 16.07 495.17 16.14Q494.70 16.21 494.12 16.31L494.12 16.31Q493.47 16.06 492.87 15.08L492.87 15.08Q493.11 14.57 493.54 13.54Q493.96 12.52 494.62 10.79L494.62 10.79Q493.99 10.60 493.79 10.09L493.79 10.09Q493.86 10.02 494.20 9.92Q494.54 9.81 495.03 9.70L495.03 9.70Q495.24 9.16 495.38 8.75Q495.53 8.34 495.64 7.99Q495.75 7.63 495.85 7.29Q495.94 6.94 496.02 6.54L496.02 6.54Q495.53 6.51 495.25 6.27Q494.97 6.02 494.97 5.63L494.97 5.63Q494.97 5.52 495.00 5.36Q495.04 5.21 495.08 5.10L495.08 5.10Q495.36 5.14 495.62 5.15Q495.88 5.17 496.30 5.17L496.30 5.17Q497.18 5.17 497.95 5.12Q498.72 5.07 499.35 5.01Q499.97 4.96 500.42 4.91Q500.86 4.86 501.10 4.86L501.10 4.86Q501.42 4.86 501.68 5.19Q501.93 5.53 502.05 6.15L502.05 6.15Q501.62 6.10 501.35 6.09Q501.07 6.08 500.86 6.08L500.86 6.08Q500.09 6.08 499.46 6.15Q498.82 6.23 498.23 6.31L498.23 6.31Q498.15 6.44 498.04 6.64Q497.94 6.83 497.77 7.18Q497.60 7.53 497.36 8.06Q497.11 8.60 496.76 9.39L496.76 9.39Q497.29 9.31 497.76 9.26Q498.23 9.21 498.55 9.21ZM517.43 5.74L517.43 5.74Q517.47 5.98 517.49 6.07Q517.51 6.16 517.51 6.31L517.51 6.31Q517.51 6.78 517.31 7.18Q517.10 7.57 516.75 7.74L516.75 7.74Q516.47 7.36 516.07 7.09Q515.66 6.82 515.18 6.64Q514.70 6.47 514.18 6.38Q513.66 6.30 513.17 6.30L513.17 6.30Q512.68 6.30 512.25 6.38Q511.83 6.45 511.50 6.59Q511.17 6.72 510.98 6.92Q510.79 7.11 510.79 7.36L510.79 7.36Q510.83 7.67 511.17 7.99Q511.50 8.30 511.99 8.60Q512.48 8.90 513.08 9.20Q513.67 9.49 514.25 9.76L514.25 9.76Q514.96 10.09 515.48 10.38Q516.00 10.67 516.33 11.01Q516.67 11.35 516.84 11.79Q517.01 12.22 517.01 12.84L517.01 12.84Q517.01 13.55 516.77 14.18Q516.53 14.80 516.08 15.26Q515.62 15.72 514.98 15.98Q514.33 16.24 513.53 16.24L513.53 16.24Q512.75 16.24 511.84 16.00Q510.93 15.76 510.14 15.35Q509.35 14.94 508.82 14.40Q508.30 13.86 508.30 13.26L508.30 13.26Q508.30 12.98 508.46 12.54Q508.62 12.11 509.04 11.63L509.04 11.63Q509.08 12.05 509.50 12.63Q509.91 13.20 510.73 13.69L510.73 13.69Q511.50 14.14 512.32 14.34Q513.14 14.55 513.86 14.55L513.86 14.55Q514.64 14.55 515.13 14.35Q515.62 14.15 515.90 13.88Q516.18 13.61 516.29 13.33Q516.40 13.05 516.42 12.88L516.42 12.88Q516.40 12.60 516.16 12.34Q515.91 12.08 515.50 11.84Q515.09 11.59 514.54 11.34Q514.00 11.09 513.41 10.84L513.41 10.84Q512.53 10.44 511.89 10.10Q511.25 9.76 510.84 9.40Q510.43 9.04 510.24 8.65Q510.05 8.26 510.05 7.76L510.05 7.76Q510.05 6.97 510.52 6.27Q511 5.57 511.90 5.21L511.90 5.21Q512.34 5.01 512.86 4.93Q513.37 4.84 513.86 4.84L513.86 4.84Q514.78 4.84 515.66 5.10Q516.54 5.35 517.43 5.74ZM525.46 15.71L525.46 15.71Q525.24 15.68 524.99 15.52Q524.75 15.36 524.68 15.16L524.68 15.16Q524.68 14.99 524.73 14.73Q524.78 14.46 524.85 14.19Q524.92 13.92 524.99 13.67Q525.06 13.43 525.08 13.30L525.08 13.30Q525.25 13.30 525.51 13.38Q525.77 13.47 526.04 13.62Q526.32 13.76 526.56 13.95Q526.81 14.14 526.93 14.34L526.93 14.34Q526.81 14.62 526.61 14.87Q526.41 15.12 526.20 15.31Q525.98 15.50 525.78 15.60Q525.59 15.71 525.46 15.71Z"></path></g></svg>