<svg data-v-423bf9ae="" xmlns="http://www.w3.org/2000/svg" viewBox="0 0 343.28083661016575 60" class="font"><!----><!----><!----><g data-v-423bf9ae="" id="a46774e8-d434-492a-80c4-3b5f59bf12f7" fill="white" transform="matrix(4.29799455121286,0,0,4.29799455121286,-0.42979341819471983,-16.547279089117964)"><path d="M2.65 13.02L2.65 13.02Q3.72 10.77 5.45 7.42L5.45 7.42Q6.13 6.08 6.78 5.54L6.78 5.54Q6.99 5.36 8.81 4.34L8.81 4.34Q9.07 4.19 9.34 4.02L9.34 4.02Q9.66 3.85 9.93 3.85L9.93 3.85L9.93 4.06Q9.30 4.54 9.09 5.18L9.09 5.18Q8.93 5.66 8.93 6.61L8.93 6.61Q8.93 9.37 10.35 12.46L10.35 12.46Q10.42 12.61 11.00 13.41L11.00 13.41Q11.48 14.06 11.48 14.34L11.48 14.34Q11.48 14.98 10.81 15.30L10.81 15.30Q10.29 15.55 9.56 15.55L9.56 15.55Q8.68 15.55 8.06 14.15L8.06 14.15Q7.92 13.82 7.41 12.04L7.41 12.04Q7.25 12.12 5.96 12.56L5.96 12.56Q4.76 12.96 4.75 13.02L4.75 13.02L4.05 15.12Q3.96 15.26 3.77 15.40L3.77 15.40L0.55 17.64Q0.31 17.81 0.10 17.81L0.10 17.81Q0.10 17.50 0.52 17.00L0.52 17.00Q1.04 16.37 1.11 16.24L1.11 16.24Q1.86 14.80 2.51 13.44L2.51 13.44Q2.60 13.23 2.65 13.02ZM6.43 8.54L6.43 8.54Q6.33 8.58 5.88 9.72Q5.43 10.85 5.43 11.06L5.43 11.06L6.99 11.06Q7.01 11.06 7.07 10.94Q7.13 10.82 7.13 10.78L7.13 10.78Q7.13 10.58 6.82 9.58Q6.51 8.58 6.43 8.54ZM12.03 13.79L12.03 13.79Q12.03 13.33 12.21 12.87L12.21 12.87Q12.33 12.39 12.47 11.91L12.47 11.91Q12.66 11.35 13.01 11.35L13.01 11.35L13.33 11.35Q13.50 12.54 14.67 13.45L14.67 13.45Q15.81 14.35 17.02 14.35L17.02 14.35Q17.63 14.35 17.63 13.86L17.63 13.86Q17.63 13.47 16.98 12.94L16.98 12.94L16.94 12.88Q16.90 12.85 16.87 12.84L16.87 12.84L16.88 12.85Q16.24 12.59 14.03 11.35L14.03 11.35Q12.67 10.60 12.67 9.41L12.67 9.41Q12.67 8.01 14.43 6.76L14.43 6.76Q16.06 5.61 17.54 5.61L17.54 5.61Q18.48 5.61 19.04 6.17Q19.60 6.73 19.60 7.67L19.60 7.67Q19.60 8.36 18.68 9.25Q17.77 10.15 17.07 10.15L17.07 10.15Q17.07 9.94 17.16 9.51Q17.25 9.09 17.25 8.88L17.25 8.88L17.25 8.76Q17.23 8.68 17.23 8.61L17.23 8.61L17.23 8.34Q16.53 7.50 15.78 7.50L15.78 7.50Q14.73 7.50 14.73 8.41L14.73 8.41Q14.73 8.99 15.47 9.52L15.47 9.52Q15.99 9.88 17.23 10.47L17.23 10.47Q18.42 11.05 18.98 11.47L18.98 11.47Q19.85 12.12 19.85 12.85L19.85 12.85L19.85 12.94Q19.38 14.24 18.51 15.09L18.51 15.09Q17.49 16.10 16.24 16.10L16.24 16.10Q15.09 16.10 13.69 15.51L13.69 15.51Q12.03 14.81 12.03 13.79ZM23.65 10.85L23.65 10.85Q23.65 9.34 23.51 7.45L23.51 7.45L23.51 7.46Q23.44 7.22 23.10 7.22L23.10 7.22L23.04 7.22Q22.61 7.22 21.74 7.38Q20.87 7.53 20.44 7.53L20.44 7.53Q20.44 6.31 21.52 5.96L21.52 5.96Q22.33 5.82 23.55 5.59L23.55 5.59Q23.91 5.52 24.89 4.98L24.89 4.98Q26.17 4.30 27.13 4.30L27.13 4.30Q27.13 4.55 26.89 4.84Q26.66 5.14 26.66 5.24L26.66 5.24Q26.66 5.56 26.89 5.59L26.89 5.59L28.83 5.85Q29.09 5.89 29.36 6.36L29.36 6.36Q29.58 6.79 29.58 7.10L29.58 7.10Q29.58 7.39 29.44 7.48L29.44 7.48Q29.36 7.53 29.02 7.53L29.02 7.53L28.97 7.53Q28.52 7.53 27.62 7.38Q26.73 7.22 26.28 7.22L26.28 7.22L26.21 7.22Q25.97 7.22 25.97 7.35L25.97 7.35Q25.97 7.39 25.98 7.43L25.98 7.43Q25.87 8.26 25.84 9.38L25.84 9.38Q25.83 9.95 25.83 11.80L25.83 11.80Q25.83 13.87 25.84 14.24L25.84 14.24Q25.72 14.88 24.68 15.39L24.68 15.39Q23.77 15.83 23.07 15.83L23.07 15.83Q23.07 15.50 23.24 14.97L23.24 14.97L23.24 14.98Q23.65 13.76 23.65 10.85ZM32.21 15.39L32.21 15.39Q31.96 15.39 31.48 15.48Q31.00 15.57 30.74 15.57L30.74 15.57Q30.74 15.30 30.93 14.91L30.93 14.91Q31.19 14.35 31.21 14.28L31.21 14.28Q31.49 13.33 31.50 11.23L31.50 11.23L31.51 9.38Q31.53 8.36 31.21 7.56L31.21 7.56Q31.14 7.38 30.88 7.38L30.88 7.38Q30.80 7.38 30.62 7.41Q30.44 7.43 30.35 7.43L30.35 7.43Q30.07 7.43 30.07 7.14L30.07 7.14Q30.07 6.57 31.89 5.52L31.89 5.52Q33.61 4.52 34.19 4.52L34.19 4.52Q34.19 4.84 34.10 5.04L34.10 5.04L33.87 5.60L33.87 5.74Q33.91 5.84 34.01 5.88L34.01 5.88L34.71 5.88Q34.73 5.88 35.18 5.89L35.18 5.89Q35.29 5.89 35.41 5.89L35.41 5.89Q36.08 5.89 37.44 5.80Q38.79 5.71 39.47 5.71L39.47 5.71L39.47 5.88Q39.47 5.94 39.18 6.22Q38.89 6.50 38.77 6.58L38.77 6.58Q37.88 7.24 37.09 7.70L37.09 7.70L36.67 7.70Q36.53 7.70 36.39 7.71L36.39 7.71L36.25 7.71Q35.85 7.71 35.06 7.65Q34.26 7.59 33.87 7.59L33.87 7.59L33.87 9.65Q34.19 9.65 34.80 9.52Q35.41 9.39 35.69 9.38L35.69 9.38Q36.64 9.34 38.57 9.34L38.57 9.34Q38.57 9.79 37.48 10.30L37.48 10.30Q36.53 10.75 35.97 10.78L35.97 10.78Q34.68 10.84 33.87 10.92L33.87 10.92Q33.89 11.38 33.89 11.87L33.89 11.87Q33.89 12.35 33.87 12.88L33.87 12.88L33.73 13.30Q33.75 13.22 33.75 13.58L33.75 13.58Q34.68 13.58 36.51 13.43Q38.35 13.27 39.27 13.27L39.27 13.27Q39.27 13.78 37.58 14.81L37.58 14.81Q35.94 15.82 35.34 15.82L35.34 15.82Q34.80 15.82 33.77 15.60Q32.75 15.39 32.21 15.39ZM40.39 17.09L40.39 16.90Q41.96 15.37 42.38 12.80L42.38 12.80Q42.59 11.51 42.59 8.11L42.59 8.11Q42.06 8.11 41.54 8.65L41.54 8.65Q41.41 8.79 40.75 9.67L40.75 9.67Q40.35 10.22 40.07 10.22L40.07 10.22Q40.07 8.61 40.81 7.64L40.81 7.64Q41.19 7.15 43.13 6.05Q45.07 4.96 45.61 4.96L45.61 4.96Q45.61 5.14 45.47 5.46Q45.32 5.78 45.32 5.96L45.32 5.96Q45.61 5.96 46.18 5.82Q46.75 5.68 47.04 5.68L47.04 5.68Q47.92 5.68 48.50 6.23Q49.08 6.78 49.08 7.66L49.08 7.66Q49.08 8.61 48.50 9.30L48.50 9.30Q48.20 9.63 47.11 10.46L47.11 10.46Q47.00 10.54 46.97 10.60L46.97 10.60L47.39 11.44L50.61 15.78L50.61 16.23Q48.13 16.23 45.85 13.26L45.85 13.26Q45.74 13.09 45.43 12.65Q45.12 12.21 44.87 12.00L44.87 12.00L44.66 12.14L44.66 14.38Q44.66 14.78 42.67 15.96L42.67 15.96Q40.77 17.09 40.39 17.09L40.39 17.09ZM45.28 6.94L45.28 6.94Q44.87 6.94 44.87 7.66L44.87 7.66L44.87 10.77Q45.65 10.77 46.14 9.94L46.14 9.94Q46.56 9.24 46.56 8.40L46.56 8.40Q46.56 7.84 46.19 7.39Q45.82 6.94 45.28 6.94ZM54.22 10.85L54.22 10.85Q54.22 9.34 54.08 7.45L54.08 7.45L54.08 7.46Q54.01 7.22 53.68 7.22L53.68 7.22L53.62 7.22Q53.19 7.22 52.32 7.38Q51.45 7.53 51.02 7.53L51.02 7.53Q51.02 6.31 52.09 5.96L52.09 5.96Q52.91 5.82 54.12 5.59L54.12 5.59Q54.49 5.52 55.47 4.98L55.47 4.98Q56.74 4.30 57.71 4.30L57.71 4.30Q57.71 4.55 57.47 4.84Q57.23 5.14 57.23 5.24L57.23 5.24Q57.23 5.56 57.47 5.59L57.47 5.59L59.40 5.85Q59.67 5.89 59.93 6.36L59.93 6.36Q60.16 6.79 60.16 7.10L60.16 7.10Q60.16 7.39 60.02 7.48L60.02 7.48Q59.93 7.53 59.60 7.53L59.60 7.53L59.54 7.53Q59.09 7.53 58.20 7.38Q57.30 7.22 56.85 7.22L56.85 7.22L56.78 7.22Q56.55 7.22 56.55 7.35L56.55 7.35Q56.55 7.39 56.56 7.43L56.56 7.43Q56.45 8.26 56.42 9.38L56.42 9.38Q56.41 9.95 56.41 11.80L56.41 11.80Q56.41 13.87 56.42 14.24L56.42 14.24Q56.29 14.88 55.26 15.39L55.26 15.39Q54.35 15.83 53.65 15.83L53.65 15.83Q53.65 15.50 53.82 14.97L53.82 14.97L53.82 14.98Q54.22 13.76 54.22 10.85ZM62.79 15.39L62.79 15.39Q62.54 15.39 62.06 15.48Q61.57 15.57 61.32 15.57L61.32 15.57Q61.32 15.30 61.50 14.91L61.50 14.91Q61.77 14.35 61.78 14.28L61.78 14.28Q62.06 13.33 62.08 11.23L62.08 11.23L62.09 9.38Q62.10 8.36 61.78 7.56L61.78 7.56Q61.71 7.38 61.46 7.38L61.46 7.38Q61.38 7.38 61.19 7.41Q61.01 7.43 60.93 7.43L60.93 7.43Q60.65 7.43 60.65 7.14L60.65 7.14Q60.65 6.57 62.47 5.52L62.47 5.52Q64.19 4.52 64.76 4.52L64.76 4.52Q64.76 4.84 64.68 5.04L64.68 5.04L64.44 5.60L64.44 5.74Q64.48 5.84 64.58 5.88L64.58 5.88L65.28 5.88Q65.31 5.88 65.76 5.89L65.76 5.89Q65.87 5.89 65.98 5.89L65.98 5.89Q66.65 5.89 68.01 5.80Q69.37 5.71 70.04 5.71L70.04 5.71L70.04 5.88Q70.04 5.94 69.76 6.22Q69.47 6.50 69.34 6.58L69.34 6.58Q68.46 7.24 67.66 7.70L67.66 7.70L67.24 7.70Q67.10 7.70 66.96 7.71L66.96 7.71L66.82 7.71Q66.43 7.71 65.63 7.65Q64.83 7.59 64.44 7.59L64.44 7.59L64.44 9.65Q64.76 9.65 65.37 9.52Q65.98 9.39 66.26 9.38L66.26 9.38Q67.21 9.34 69.15 9.34L69.15 9.34Q69.15 9.79 68.05 10.30L68.05 10.30Q67.10 10.75 66.54 10.78L66.54 10.78Q65.25 10.84 64.44 10.92L64.44 10.92Q64.47 11.38 64.47 11.87L64.47 11.87Q64.47 12.35 64.44 12.88L64.44 12.88L64.30 13.30Q64.33 13.22 64.33 13.58L64.33 13.58Q65.25 13.58 67.09 13.43Q68.92 13.27 69.85 13.27L69.85 13.27Q69.85 13.78 68.15 14.81L68.15 14.81Q66.51 15.82 65.91 15.82L65.91 15.82Q65.38 15.82 64.35 15.60Q63.32 15.39 62.79 15.39ZM71.41 11.23L71.41 10.15Q71.41 9.56 71.26 8.39Q71.11 7.22 71.11 6.64L71.11 6.64Q71.11 5.99 72.28 5.39L72.28 5.39Q73.33 4.86 74.07 4.86L74.07 4.86Q74.07 5.28 73.92 6.10Q73.77 6.93 73.77 7.35L73.77 7.35Q73.77 9.07 73.92 9.67L73.92 9.67Q75.28 8.46 76.58 7.15L76.58 7.15Q77.55 6.19 77.98 5.98L77.98 5.98Q78.57 5.70 79.97 5.70L79.97 5.70Q79.97 5.98 79.28 6.44L79.28 6.44Q79.06 6.58 78.40 7.01L78.40 7.01Q77.04 8.29 75.88 9.53L75.88 9.53L75.88 9.60Q75.88 10.16 76.58 11.38L76.58 11.38Q77.14 12.32 77.70 13.03L77.70 13.03L79.38 15.13Q79.53 15.33 79.53 15.55L79.53 15.55Q79.53 15.78 79.38 15.83L79.38 15.83L79.31 15.83Q79.23 15.85 79.14 15.85L79.14 15.85L78.89 15.85Q76.64 15.85 74.76 13.03L74.76 13.03L73.92 11.77Q73.88 11.68 73.78 11.63L73.78 11.63L73.78 14.99Q73.78 15.48 72.55 16.18L72.55 16.18Q71.37 16.84 70.81 16.84L70.81 16.84Q70.81 16.37 71.01 15.57L71.01 15.57Q71.23 14.67 71.26 14.29L71.26 14.29Q71.40 12.61 71.40 12.05L71.40 12.05Q71.40 12.05 71.41 11.77L71.41 11.77Q71.41 11.51 71.41 11.23L71.41 11.23Z"></path></g><!----><!----></svg>